<?xml version="1.0" encoding="utf-8"?>
<!-- Generator: Adobe Illustrator 25.4.5, SVG Export Plug-In . SVG Version: 6.00 Build 0)  -->
<svg version="1.1" id="Layer_1" xmlns="http://www.w3.org/2000/svg" xmlns:xlink="http://www.w3.org/1999/xlink" x="0px" y="0px"
	 viewBox="0 0 469.6 469.8" style="enable-background:new 0 0 469.6 469.8;" xml:space="preserve">
<style type="text/css">
	.st0{fill:#FFFFFF;}
</style>
<g id="Layer_2_00000180332909700278565510000006120610517117323435_">
	<g id="Layer_1-2">
		<path class="st0" d="M251.4,469.8h-33c-1.2-0.3-2.3-0.7-3.5-0.9c-10.8-1.6-21.8-2.6-32.5-5C55.2,435.5-25,304.9,7.1,178.1
			C42,40,190.1-36.4,322,17.3c79.2,32.3,127.1,92.3,143.9,176.4c1.6,8.2,2.5,16.6,3.7,24.8v33c-0.4,1.1-0.7,2.3-0.9,3.5
			c-3.3,40.9-16.4,78.4-39.8,112c-37.5,53.9-88.4,87.3-153.2,99.1C267.7,467.7,259.6,468.6,251.4,469.8z M235.3,29.7
			C122.7,29.2,30.4,121.1,29.6,234.5c-0.8,112.6,91.6,205.4,205,206c112.5,0.5,205.3-91.4,205.6-204.8
			C440.5,122.4,349.5,30.5,235.3,29.7z"/>
		<path class="st0" d="M220.3,119.2c0-5.4,0-10.7,0-16c0.1-8.5,6.4-14.8,14.8-14.7c8,0,14.5,6.4,14.5,14.4c0,0.1,0,0.1,0,0.2
			c0.1,5.3,0,10.7,0,16.2c14.3,3.6,26.3,10.7,35.7,21.9c10,11.5,15.5,26.3,15.6,41.5c0.1,9-5.9,15.6-14.2,15.7
			c-8.5,0.2-14.7-5.9-15.1-14.9c-0.9-19.7-14.5-34.3-33.9-36.2c-16.9-1.7-33.5,10.2-38.1,27.3c-6.3,23.3,11.2,45.5,36.2,46
			c36.4,0.5,65.6,30.4,65.1,66.9c-0.4,28.9-19.5,54.2-47.2,62.4c-1.3,0.4-2.6,0.8-4.1,1.4c0,5.3,0.1,10.7,0,16
			c-0.1,8.5-6.5,14.8-14.8,14.7c-8,0-14.5-6.5-14.5-14.5c0,0,0,0,0-0.1c-0.1-5.3,0-10.7,0-14.9c-8.5-4.4-16.9-7.5-23.9-12.6
			c-18-12.9-27.2-30.9-27.4-53.1c-0.3-7.9,5.9-14.5,13.9-14.8c0.1,0,0.2,0,0.4,0c8.4-0.1,14.7,5.9,15.1,14.5
			c0.9,19.2,12.8,33.1,31.2,36.2c19.2,3.3,38.1-10.2,41.3-29.5c3.4-20.2-9.5-39.2-29-42.4c-7.4-1.2-14.9-1.1-22.2-2.8
			c-28.4-6.4-50-32.5-50.6-60.5c-0.7-32,18.2-58.6,47.6-67C217.8,120,218.9,119.6,220.3,119.2z"/>
	</g>
</g>
</svg>
