<?xml version="1.0" encoding="utf-8"?>
<!-- Generator: Adobe Illustrator 25.4.5, SVG Export Plug-In . SVG Version: 6.00 Build 0)  -->
<svg version="1.1" id="Layer_1" xmlns="http://www.w3.org/2000/svg" xmlns:xlink="http://www.w3.org/1999/xlink" x="0px" y="0px"
	 viewBox="0 0 512 512" style="enable-background:new 0 0 512 512;" xml:space="preserve">
<style type="text/css">
	.st0{opacity:0.1;}
	.st1{clip-path:url(#SVGID_00000060720356678047783850000015981119862556939154_);}
	.st2{fill:#A49DB5;}
	.st3{fill:#B4AEC2;}
	.st4{fill:#C4BFCF;}
	.st5{fill:#81799A;}
	.st6{fill:#766E92;}
	.st7{fill:#676087;}
	.st8{fill:#AEA8BD;}
	.st9{fill:#D1CED9;}
	.st10{fill:#7B7395;}
	.st11{fill:#958DA9;}
	.st12{fill:#E6E3E9;}
	.st13{fill:#847C9C;}
	.st14{fill:#CCC8D5;}
	.st15{fill:#DEDBE3;}
	.st16{fill:#A39BB4;}
	.st17{fill:#877F9E;}
	.st18{fill:#E4E1E8;}
	.st19{fill:#948CA8;}
	.st20{fill:#B9B3C6;}
	.st21{fill:#BFBACB;}
	.st22{fill:#7C7496;}
	.st23{fill:#686188;}
	.st24{fill:#A69FB6;}
	.st25{fill:#9088A5;}
	.st26{fill:#AAA3BA;}
	.st27{fill:#C1BCCC;}
	.st28{fill:#BAB5C7;}
	.st29{fill:#9189A6;}
	.st30{fill:#E0DDE5;}
	.st31{fill:#8B82A1;}
	.st32{fill:#CECAD6;}
	.st33{fill:#EFEEF1;}
	.st34{opacity:0.46;fill:#EFEEF1;}
	.st35{fill:#FFFFFF;}
	.st36{fill:#D7D3DD;}
	.st37{opacity:0.52;}
	.st38{fill:#ADA6BC;}
	.st39{opacity:0.42;fill:#E4E1E8;}
	.st40{fill:#B3ADC1;}
	.st41{fill:#E2DFE6;}
	.st42{fill:#C2BECD;}
	.st43{fill:#CBC6D4;}
	.st44{opacity:0.97;fill:#E2DFE6;}
	.st45{fill:#BCB7C8;}
	.st46{opacity:0.27;fill:#E2DFE6;}
	.st47{opacity:0.65;fill:#E2DFE6;}
	.st48{fill:#8981A0;}
	.st49{opacity:0.63;fill:#E4E1E8;}
	.st50{fill:#C6C1D0;}
	.st51{fill:#F4F2F5;}
	.st52{fill:#A19AB3;}
	.st53{opacity:0.48;fill:#D3CFDB;}
	.st54{fill:#D3CFDB;}
</style>
<g class="st0">
	<g>
		<defs>
			<rect id="SVGID_1_" y="0" width="512" height="512"/>
		</defs>
		<clipPath id="SVGID_00000027563019896917636440000007859918443567473565_">
			<use xlink:href="#SVGID_1_"  style="overflow:visible;"/>
		</clipPath>
		<g style="clip-path:url(#SVGID_00000027563019896917636440000007859918443567473565_);">
			<g>
				<g>
					<path class="st2" d="M315.3,550.8L315.3,550.8c0.7,0,1.2-0.5,1.2-1.2l0.8-39h-3.9l0.8,39C314.1,550.3,314.7,550.8,315.3,550.8z
						"/>
					<path class="st2" d="M310.8,550.8L310.8,550.8c0.7,0,1.2-0.5,1.2-1.2l0.8-39h-3.9l0.8,39C309.6,550.3,310.1,550.8,310.8,550.8z
						"/>
					<path class="st2" d="M306.2,550.8L306.2,550.8c0.7,0,1.2-0.5,1.2-1.2l0.8-39h-3.9l0.8,39C305,550.3,305.5,550.8,306.2,550.8z"
						/>
					<path class="st2" d="M301.6,550.8L301.6,550.8c0.7,0,1.2-0.5,1.2-1.2l0.8-39h-3.9l0.8,39C300.4,550.3,301,550.8,301.6,550.8z"
						/>
					<path class="st2" d="M297.1,550.8L297.1,550.8c0.7,0,1.2-0.5,1.2-1.2l0.8-39h-3.9l0.8,39C295.9,550.3,296.4,550.8,297.1,550.8z
						"/>
					<path class="st2" d="M292.5,550.8L292.5,550.8c0.7,0,1.2-0.5,1.2-1.2l0.8-39h-3.9l0.8,39C291.3,550.3,291.8,550.8,292.5,550.8z
						"/>
					<path class="st2" d="M287.9,550.8L287.9,550.8c0.7,0,1.2-0.5,1.2-1.2l0.8-39H286l0.8,39C286.7,550.3,287.3,550.8,287.9,550.8z"
						/>
					<path class="st2" d="M283.4,550.8L283.4,550.8c0.7,0,1.2-0.5,1.2-1.2l0.8-39h-3.9l0.8,39C282.2,550.3,282.7,550.8,283.4,550.8z
						"/>
					<path class="st2" d="M278.8,550.8L278.8,550.8c0.7,0,1.2-0.5,1.2-1.2l0.8-39h-3.9l0.8,39C277.6,550.3,278.1,550.8,278.8,550.8z
						"/>
					<path class="st2" d="M274.2,550.8L274.2,550.8c0.7,0,1.2-0.5,1.2-1.2l0.8-39h-3.9l0.8,39C273,550.3,273.6,550.8,274.2,550.8z"
						/>
					<path class="st2" d="M269.7,550.8L269.7,550.8c0.7,0,1.2-0.5,1.2-1.2l0.8-39h-3.9l0.8,39C268.5,550.3,269,550.8,269.7,550.8z"
						/>
					<path class="st2" d="M265.1,550.8L265.1,550.8c0.7,0,1.2-0.5,1.2-1.2l0.8-39h-3.9l0.8,39C263.9,550.3,264.4,550.8,265.1,550.8z
						"/>
					<path class="st2" d="M260.5,550.8L260.5,550.8c0.7,0,1.2-0.5,1.2-1.2l0.8-39h-3.9l0.8,39C259.3,550.3,259.9,550.8,260.5,550.8z
						"/>
					<path class="st2" d="M256,550.8L256,550.8c0.7,0,1.2-0.5,1.2-1.2l0.8-39H254l0.8,39C254.8,550.3,255.3,550.8,256,550.8z"/>
					<path class="st2" d="M251.4,550.8L251.4,550.8c0.7,0,1.2-0.5,1.2-1.2l0.8-39h-3.9l0.8,39C250.2,550.3,250.7,550.8,251.4,550.8z
						"/>
					<path class="st2" d="M246.8,550.8L246.8,550.8c0.7,0,1.2-0.5,1.2-1.2l0.8-39h-3.9l0.8,39C245.6,550.3,246.2,550.8,246.8,550.8z
						"/>
					<path class="st2" d="M242.3,550.8L242.3,550.8c0.7,0,1.2-0.5,1.2-1.2l0.8-39h-3.9l0.8,39C241.1,550.3,241.6,550.8,242.3,550.8z
						"/>
					<path class="st2" d="M237.7,550.8L237.7,550.8c0.7,0,1.2-0.5,1.2-1.2l0.8-39h-3.9l0.8,39C236.5,550.3,237,550.8,237.7,550.8z"
						/>
					<path class="st2" d="M233.1,550.8L233.1,550.8c0.7,0,1.2-0.5,1.2-1.2l0.8-39h-3.9l0.8,39C231.9,550.3,232.5,550.8,233.1,550.8z
						"/>
					<path class="st2" d="M228.6,550.8L228.6,550.8c0.7,0,1.2-0.5,1.2-1.2l0.8-39h-3.9l0.8,39C227.4,550.3,227.9,550.8,228.6,550.8z
						"/>
					<path class="st2" d="M224,550.8L224,550.8c0.7,0,1.2-0.5,1.2-1.2l0.8-39H222l0.8,39C222.8,550.3,223.3,550.8,224,550.8z"/>
					<path class="st2" d="M219.4,550.8L219.4,550.8c0.7,0,1.2-0.5,1.2-1.2l0.8-39h-3.9l0.8,39C218.2,550.3,218.8,550.8,219.4,550.8z
						"/>
					<path class="st2" d="M214.9,550.8L214.9,550.8c0.7,0,1.2-0.5,1.2-1.2l0.8-39h-3.9l0.8,39C213.7,550.3,214.2,550.8,214.9,550.8z
						"/>
				</g>
				<path class="st3" d="M318.6,519v31.8h0c0.9,0,1.7-0.6,2-1.4c1.8-5.6,8.3-26.2,6.8-33.8c-0.6-3.1-4.2-8.9-7-10.4
					c-26.6-14.1-90.2,0-120.2,0c-28.5,0-67.1-2.2-89.5-3c-11.6-0.5-18.3,13.6-18.3,20.4c0,10.7,9.4,19.8,9.4,19.8
					s30.4-17.5,82.2-17.5c22.3,0,25.4,17.3,25.8,23.7c0.1,1.3,1.1,2.3,2.4,2.3h0v-29.3C252.3,513.3,288.2,511.7,318.6,519z"/>
				<path class="st4" d="M327.4,517.3c-0.6-3.1-4.2-8.9-7-10.4c-26.6-14.1-90.2,0-120.2,0c-28.5,0-67.1-2.2-89.5-3
					c-11.1-0.4-17.7,12.5-18.2,19.6c0-0.3,0-0.6,0-0.9c0-6.8,6.7-20.9,18.3-20.4c22.4,0.9,61,3,89.5,3c30.1,0,93.7-14.1,120.2,0
					c2.8,1.5,6.4,7.3,7,10.4c0.2,1,0.2,2.3,0.2,3.7C327.6,518.6,327.5,517.9,327.4,517.3z"/>
			</g>
			<g>
				<path class="st5" d="M40.6,565.5c0-0.2,0-0.4,0-0.6c5.3-37.7,4.1-58.2,2.3-92.3l-0.2-2.8l1.4-0.1l0.2,2.8
					c1.9,34.1,3,54.7-2.3,92.5c-0.1,0.7,0.1,1.3,0.5,1.9c0.5,0.6,1.4,1,2.3,1c0.6,0,1.2-0.3,1.7-0.9c0.6-0.7,0.9-1.6,0.8-2.4
					c-1.8-13.3-1.4-24.1,1.3-36.3c0.3-1.3-0.4-2.4-1.1-3.5c-0.5-0.9-1.1-1.7-1.1-2.6c0-1.3,0.5-2.3,0.9-3.4c0.4-1,0.8-1.9,0.8-2.8
					c0-0.9-0.3-1.6-0.7-2.5c-0.4-1-0.9-2.2-0.9-3.7c0-1.5,0.5-2.7,1-3.6c0.4-0.9,0.8-1.6,0.8-2.6c0-1-0.3-1.7-0.7-2.5
					c-0.4-0.9-0.9-1.9-1-3.5c-0.1-1.6-0.4-3.9-0.7-6.1c-0.4-2.8-0.7-5.5-0.7-6.7c0-2.3,3.9-10.1,5-11.9l1.2,0.7
					c-1.2,1.9-4.8,9.4-4.8,11.2c0,1.1,0.4,3.9,0.7,6.5c0.3,2.2,0.6,4.5,0.7,6.1c0.1,1.4,0.5,2.2,0.9,3c0.4,0.9,0.8,1.8,0.8,3.1
					c0,1.3-0.5,2.2-0.9,3.2c-0.4,0.9-0.8,1.8-0.8,3c0,1.3,0.4,2.2,0.8,3.2c0.4,0.9,0.8,1.9,0.8,3c0,1.2-0.5,2.3-0.9,3.3
					c-0.4,1-0.8,1.9-0.8,2.9c0,0.5,0.4,1.2,0.8,1.9c0.7,1.2,1.7,2.7,1.2,4.5c-2.6,12-3,22.7-1.3,35.8c0.2,1.2-0.2,2.5-1.1,3.5
					c-0.8,0.9-1.8,1.4-2.8,1.4c-1.4,0-2.6-0.5-3.4-1.5C40.9,567.2,40.6,566.4,40.6,565.5z"/>
				<path class="st5" d="M43.8,474.6c0,0-2-3.7-2.1-4.6s0.6-1.7,1.5-1.8c0.9-0.1,1.7,0.6,1.8,1.5C45.1,470.6,43.8,474.6,43.8,474.6z
					"/>
				<path class="st5" d="M48.9,477c0,0,0.3-4.2,0.8-5.1c0.4-0.8,1.4-1.1,2.2-0.7c0.8,0.4,1.1,1.4,0.7,2.2
					C52.2,474.3,48.9,477,48.9,477z"/>
			</g>
		</g>
		<g style="clip-path:url(#SVGID_00000027563019896917636440000007859918443567473565_);">
			<g>
				<path class="st6" d="M493.1,280c0-0.1,0-0.2,0-0.2c0.9-6.5,7-10.9,13.5-10c48.2,6.6,87.7,5.2,135.9-4.4c3.6-0.7,7.1,1.4,8,4.9
					c0,0,0,0.1,0,0.1c0.9,3.5-1.3,7.1-5,8.1c-48.9,13.2-90.3,18.2-141.4,14.5C497.3,292.4,492.3,286.4,493.1,280z"/>
				<path class="st7" d="M645.6,278.4c1.8-0.5,3.2-1.5,4.1-2.9c-0.6,0.4-1.3,0.7-2.1,1c-48.9,13.2-90.3,18.2-141.4,14.5
					c-6.9-0.5-12-6.5-11.1-12.9c0-0.1,0-0.2,0-0.2c0.3-2.1,1.1-4,2.4-5.6c-2.3,1.8-3.9,4.4-4.3,7.5c0,0.1,0,0.2,0,0.2
					c-0.9,6.5,4.1,12.4,11.1,12.9C555.3,296.5,596.7,291.6,645.6,278.4z"/>
			</g>
		</g>
		<g style="clip-path:url(#SVGID_00000027563019896917636440000007859918443567473565_);">
			<g>
				<g>
					<path class="st2" d="M315.3,38.8L315.3,38.8c0.7,0,1.2-0.5,1.2-1.2l0.8-39h-3.9l0.8,39C314.1,38.3,314.7,38.8,315.3,38.8z"/>
					<path class="st2" d="M310.8,38.8L310.8,38.8c0.7,0,1.2-0.5,1.2-1.2l0.8-39h-3.9l0.8,39C309.6,38.3,310.1,38.8,310.8,38.8z"/>
					<path class="st2" d="M306.2,38.8L306.2,38.8c0.7,0,1.2-0.5,1.2-1.2l0.8-39h-3.9l0.8,39C305,38.3,305.5,38.8,306.2,38.8z"/>
					<path class="st2" d="M301.6,38.8L301.6,38.8c0.7,0,1.2-0.5,1.2-1.2l0.8-39h-3.9l0.8,39C300.4,38.3,301,38.8,301.6,38.8z"/>
					<path class="st2" d="M297.1,38.8L297.1,38.8c0.7,0,1.2-0.5,1.2-1.2l0.8-39h-3.9l0.8,39C295.9,38.3,296.4,38.8,297.1,38.8z"/>
					<path class="st2" d="M292.5,38.8L292.5,38.8c0.7,0,1.2-0.5,1.2-1.2l0.8-39h-3.9l0.8,39C291.3,38.3,291.8,38.8,292.5,38.8z"/>
					<path class="st2" d="M287.9,38.8L287.9,38.8c0.7,0,1.2-0.5,1.2-1.2l0.8-39H286l0.8,39C286.7,38.3,287.3,38.8,287.9,38.8z"/>
					<path class="st2" d="M283.4,38.8L283.4,38.8c0.7,0,1.2-0.5,1.2-1.2l0.8-39h-3.9l0.8,39C282.2,38.3,282.7,38.8,283.4,38.8z"/>
					<path class="st2" d="M278.8,38.8L278.8,38.8c0.7,0,1.2-0.5,1.2-1.2l0.8-39h-3.9l0.8,39C277.6,38.3,278.1,38.8,278.8,38.8z"/>
					<path class="st2" d="M274.2,38.8L274.2,38.8c0.7,0,1.2-0.5,1.2-1.2l0.8-39h-3.9l0.8,39C273,38.3,273.6,38.8,274.2,38.8z"/>
					<path class="st2" d="M269.7,38.8L269.7,38.8c0.7,0,1.2-0.5,1.2-1.2l0.8-39h-3.9l0.8,39C268.5,38.3,269,38.8,269.7,38.8z"/>
					<path class="st2" d="M265.1,38.8L265.1,38.8c0.7,0,1.2-0.5,1.2-1.2l0.8-39h-3.9l0.8,39C263.9,38.3,264.4,38.8,265.1,38.8z"/>
					<path class="st2" d="M260.5,38.8L260.5,38.8c0.7,0,1.2-0.5,1.2-1.2l0.8-39h-3.9l0.8,39C259.3,38.3,259.9,38.8,260.5,38.8z"/>
					<path class="st2" d="M256,38.8L256,38.8c0.7,0,1.2-0.5,1.2-1.2l0.8-39H254l0.8,39C254.8,38.3,255.3,38.8,256,38.8z"/>
					<path class="st2" d="M251.4,38.8L251.4,38.8c0.7,0,1.2-0.5,1.2-1.2l0.8-39h-3.9l0.8,39C250.2,38.3,250.7,38.8,251.4,38.8z"/>
					<path class="st2" d="M246.8,38.8L246.8,38.8c0.7,0,1.2-0.5,1.2-1.2l0.8-39h-3.9l0.8,39C245.6,38.3,246.2,38.8,246.8,38.8z"/>
					<path class="st2" d="M242.3,38.8L242.3,38.8c0.7,0,1.2-0.5,1.2-1.2l0.8-39h-3.9l0.8,39C241.1,38.3,241.6,38.8,242.3,38.8z"/>
					<path class="st2" d="M237.7,38.8L237.7,38.8c0.7,0,1.2-0.5,1.2-1.2l0.8-39h-3.9l0.8,39C236.5,38.3,237,38.8,237.7,38.8z"/>
					<path class="st2" d="M233.1,38.8L233.1,38.8c0.7,0,1.2-0.5,1.2-1.2l0.8-39h-3.9l0.8,39C231.9,38.3,232.5,38.8,233.1,38.8z"/>
					<path class="st2" d="M228.6,38.8L228.6,38.8c0.7,0,1.2-0.5,1.2-1.2l0.8-39h-3.9l0.8,39C227.4,38.3,227.9,38.8,228.6,38.8z"/>
					<path class="st2" d="M224,38.8L224,38.8c0.7,0,1.2-0.5,1.2-1.2l0.8-39H222l0.8,39C222.8,38.3,223.3,38.8,224,38.8z"/>
					<path class="st2" d="M219.4,38.8L219.4,38.8c0.7,0,1.2-0.5,1.2-1.2l0.8-39h-3.9l0.8,39C218.2,38.3,218.8,38.8,219.4,38.8z"/>
					<path class="st2" d="M214.9,38.8L214.9,38.8c0.7,0,1.2-0.5,1.2-1.2l0.8-39h-3.9l0.8,39C213.7,38.3,214.2,38.8,214.9,38.8z"/>
				</g>
				<path class="st3" d="M318.6,7v31.8h0c0.9,0,1.7-0.6,2-1.4c1.8-5.6,8.3-26.2,6.8-33.8c-0.6-3.1-4.2-8.9-7-10.4
					c-26.6-14.1-90.2,0-120.2,0c-28.5,0-67.1-2.2-89.5-3C99.1-10.2,92.4,3.8,92.4,10.6c0,10.7,9.4,19.8,9.4,19.8
					s30.4-17.5,82.2-17.5c22.3,0,25.4,17.3,25.8,23.7c0.1,1.3,1.1,2.3,2.4,2.3h0V9.5C252.3,1.3,288.2-0.3,318.6,7z"/>
				<path class="st4" d="M327.4,5.3c-0.6-3.1-4.2-8.9-7-10.4c-26.6-14.1-90.2,0-120.2,0c-28.5,0-67.1-2.2-89.5-3
					C99.5-8.5,92.9,4.4,92.4,11.5c0-0.3,0-0.6,0-0.9c0-6.8,6.7-20.9,18.3-20.4c22.4,0.9,61,3,89.5,3c30.1,0,93.7-14.1,120.2,0
					c2.8,1.5,6.4,7.3,7,10.4c0.2,1,0.2,2.3,0.2,3.7C327.6,6.6,327.5,5.9,327.4,5.3z"/>
			</g>
			<g>
				<path class="st8" d="M520.5,16.6c-7.2-3.4-15.7-5.2-23.8-5.2c-25.9,0-45.8,9.8-66.8,9.8h-40.4c-1.7,0-3,1.4-3,3v33
					c0,1.7,1.4,3,3,3h40.4c9.6,0,38.8,6.4,46.9,14.5c10.3,10.3-15.2,46.4-15.2,74.5c0,5.3,0.2,13.4,0.2,13.4l16.9-6.4l10.8-4.1
					L503.3,88c1.1-5.2,3.8-9.9,7.7-13.5c2-1.9,4.4-3.5,7-4.6c0.6-0.3,1.3-0.6,1.9-0.9C525.7,54,525.4,30.5,520.5,16.6z"/>
				<path class="st6" d="M480.9,85.9h-4.8c-0.8,0-1.5-0.7-1.5-1.5v-4c0-0.8,0.7-1.5,1.5-1.5h4.8V85.9z"/>
				<path class="st9" d="M522.3,23.4c-8.4-2.8-18.1-4.4-26.1-4.4c-16.2,0-55.8,8.5-64.8,8.5h-45v14.8h137.8
					C524.2,35.6,523.6,29.1,522.3,23.4z"/>
				<path class="st10" d="M511,74.5c-3.8,3.5-6.6,8.2-7.7,13.5l-13.9,64.2l-10.8,4.1c3.5-15.1,17.5-73,20.7-76.2
					C504.2,75.2,507.3,74.1,511,74.5z"/>
				<path class="st6" d="M477,93.6c0,0-3,0.4-4,1.2c0.1,0.9-0.7,9-2.8,12.1c-0.2,0.7,0.9,2.3,1.3,2.6C471.8,109.8,477,93.6,477,93.6
					z"/>
				<path class="st6" d="M476.1,187.1c0.8-3,13.3-34.9,13.3-34.9l-27.6,10.4c0.3,8.6,9.8,34.7,9.6,36.6c-0.1,1.9,7.8-0.8,7.8-0.8
					S475.2,190.1,476.1,187.1z M473.5,175.1v-9.7c0-1.6,1.1-3.1,2.6-3.6l4-1.3c0.6-0.2,1.1,0.4,0.9,1l-6.2,14
					C474.6,176,473.5,175.8,473.5,175.1z"/>
				<path class="st11" d="M522.7,25.3c-8.5-2.8-18.4-4.6-26.5-4.6c-16.2,0-55.8,8.5-64.8,8.5h-45v1.8h45c9.1,0,48.6-8.5,64.8-8.5
					c8.2,0,18.2,1.8,26.8,4.7C523,26.6,522.9,26,522.7,25.3z"/>
				<path class="st12" d="M523.4,54.6c-11.2,2-23.6,3-28.2,3c-8.2,0-57.4-8.8-65.4-8.8h-43.4v3.5c10.5-0.3,36.5-1,43.1-1
					c8.2,0,47.8,9.9,65.9,9.9c8,0,18.4-1.7,27.4-3.5C523.1,56.7,523.2,55.7,523.4,54.6z"/>
				<path class="st6" d="M386.4,22.8c-20.6,0.1-37.2,8-37.2,17.7s16.6,17.6,37.2,17.7V22.8z"/>
				<path class="st13" d="M368.2,46.6L338.3,48V33l29.9,1.4c3.2,0.1,5.8,2.8,5.8,6v0.1C374,43.8,371.4,46.5,368.2,46.6z"/>
				<path class="st6" d="M527.8,60.7c-0.6,0-1.1-0.5-1.1-1.1v0c0-0.6,0.5-1.1,1.1-1.1h5.5c0.5-0.7,1.1-1.5,1.5-2.3h-5.1
					c-0.6,0-1.1-0.5-1.1-1.1v0c0-0.6,0.5-1.1,1.1-1.1h6.4c0.3-0.7,0.7-1.5,1-2.3h-5.5c-0.6,0-1.1-0.5-1.1-1.1v0
					c0-0.6,0.5-1.1,1.1-1.1h6.2c0.2-0.7,0.4-1.5,0.5-2.3h-5.7c-0.6,0-1.1-0.5-1.1-1.1v0c0-0.6,0.5-1.1,1.1-1.1h6
					c0.1-0.8,0.1-1.6,0.1-2.4c0-0.2,0-0.4,0-0.5c0-0.3,0-0.5,0-0.8h-6.1c-0.6,0-1.1-0.5-1.1-1.1v0c0-0.6,0.5-1.1,1.1-1.1h5.9
					c-0.1-0.8-0.2-1.6-0.4-2.3h-6.5c-0.6,0-1.1-0.5-1.1-1.1v0c0-0.6,0.5-1.1,1.1-1.1h5.9c-0.3-0.8-0.5-1.6-0.9-2.3h-6.9
					c-0.6,0-1.1-0.5-1.1-1.1v0c0-0.6,0.5-1.1,1.1-1.1h5.7c-0.1-0.1-0.2-0.3-0.2-0.4c-0.4-0.6-0.8-1.3-1.2-1.9h-6.1
					c-0.6,0-1.1-0.5-1.1-1.1v0c0-0.6,0.5-1.1,1.1-1.1h4.2c-3.1-3.4-7.1-6.2-11.6-8.4c4.9,13.9,5.2,37.4-0.6,52.5
					c4-1.9,8.1-4.6,11.5-8.4H527.8z"/>
			</g>
			<g>
				<path class="st8" d="M30.6,324.3c7.2-3.4,15.7-5.2,23.8-5.2c25.9,0,45.8,9.8,66.8,9.8h40.4c1.7,0,3,1.4,3,3v33c0,1.7-1.4,3-3,3
					h-40.4c-9.6,0-38.8,6.4-46.9,14.5c-10.3,10.3,15.2,46.4,15.2,74.5c0,5.3-0.2,13.4-0.2,13.4l-16.9-6.4l-10.8-4.1l-13.9-64.2
					c-1.1-5.2-3.8-9.9-7.7-13.5c-2-1.9-4.4-3.5-7-4.6c-0.6-0.3-1.3-0.6-1.9-0.9C25.4,361.6,25.7,338.1,30.6,324.3z"/>
				<path class="st6" d="M70.2,393.5h4.8c0.8,0,1.5-0.7,1.5-1.5v-4c0-0.8-0.7-1.5-1.5-1.5h-4.8V393.5z"/>
				<path class="st9" d="M28.7,331c8.4-2.8,18.1-4.4,26.1-4.4c16.2,0,55.8,8.5,64.8,8.5h45v14.8H26.8
					C26.8,343.3,27.5,336.7,28.7,331z"/>
				<path class="st10" d="M40.1,382.2c3.8,3.5,6.6,8.2,7.7,13.5l13.9,64.2l10.8,4.1c-3.5-15.1-17.5-73-20.7-76.2
					C46.9,382.9,43.7,381.7,40.1,382.2z"/>
				<path class="st6" d="M74.1,401.3c0,0,3,0.4,4,1.2c-0.1,0.9,0.7,9,2.8,12.1c0.2,0.7-0.9,2.3-1.3,2.6
					C79.2,417.4,74.1,401.3,74.1,401.3z"/>
				<path class="st6" d="M71.8,506c0,0,8,2.7,7.8,0.8c-0.1-1.9,9.3-28,9.6-36.6l-27.6-10.4c0,0,12.5,31.9,13.3,34.9
					C75.8,497.8,71.8,506,71.8,506z M76.1,483L70,469c-0.2-0.6,0.3-1.2,0.9-1l4,1.3c1.6,0.5,2.6,2,2.6,3.6v9.7
					C77.5,483.5,76.4,483.7,76.1,483z"/>
				<path class="st11" d="M28.3,333c8.5-2.8,18.4-4.6,26.5-4.6c16.2,0,55.8,8.5,64.8,8.5h45v1.8h-45c-9.1,0-48.6-8.5-64.8-8.5
					c-8.2,0-18.2,1.8-26.8,4.7C28.1,334.3,28.2,333.6,28.3,333z"/>
				<path class="st12" d="M27.7,362.3c11.2,2,23.6,3,28.2,3c8.2,0,57.4-8.8,65.4-8.8h43.4v3.5c-10.5-0.3-36.5-1-43.1-1
					c-8.2,0-47.8,9.9-65.9,9.9c-8,0-18.4-1.7-27.4-3.5C28,364.4,27.8,363.3,27.7,362.3z"/>
				<path class="st6" d="M164.6,330.5c20.6,0.1,37.2,8,37.2,17.7c0,9.7-16.6,17.6-37.2,17.7V330.5z"/>
				<path class="st13" d="M182.8,354.3l29.9,1.4v-15l-29.9,1.4c-3.2,0.1-5.8,2.8-5.8,6v0.1C177.1,351.5,179.6,354.1,182.8,354.3z"/>
				<path class="st6" d="M23.2,368.3c0.6,0,1.1-0.5,1.1-1.1v0c0-0.6-0.5-1.1-1.1-1.1h-5.5c-0.5-0.7-1.1-1.5-1.5-2.3h5.1
					c0.6,0,1.1-0.5,1.1-1.1v0c0-0.6-0.5-1.1-1.1-1.1H15c-0.3-0.7-0.7-1.5-1-2.3h5.5c0.6,0,1.1-0.5,1.1-1.1v0c0-0.6-0.5-1.1-1.1-1.1
					h-6.2c-0.2-0.7-0.4-1.5-0.5-2.3h5.7c0.6,0,1.1-0.5,1.1-1.1v0c0-0.6-0.5-1.1-1.1-1.1h-6c-0.1-0.8-0.1-1.6-0.1-2.4
					c0-0.2,0-0.4,0-0.5c0-0.3,0-0.5,0-0.8h6.1c0.6,0,1.1-0.5,1.1-1.1v0c0-0.6-0.5-1.1-1.1-1.1h-5.9c0.1-0.8,0.2-1.6,0.4-2.3h6.5
					c0.6,0,1.1-0.5,1.1-1.1v0c0-0.6-0.5-1.1-1.1-1.1h-5.9c0.3-0.8,0.5-1.6,0.9-2.3h6.9c0.6,0,1.1-0.5,1.1-1.1v0
					c0-0.6-0.5-1.1-1.1-1.1h-5.7c0.1-0.1,0.2-0.3,0.2-0.4c0.4-0.6,0.8-1.3,1.2-1.9h6.1c0.6,0,1.1-0.5,1.1-1.1v0
					c0-0.6-0.5-1.1-1.1-1.1H19c3.1-3.4,7.1-6.2,11.6-8.4c-4.9,13.9-5.2,37.4,0.6,52.5c-4-1.9-8.1-4.6-11.5-8.4H23.2z"/>
			</g>
			<g>
				<rect x="58.7" y="69.5" class="st14" width="121.8" height="25.5"/>
				<rect x="58.7" y="85.6" class="st15" width="121.8" height="5.9"/>
				<path class="st6" d="M41.2,73.1l17.5-3.6V95l-17.5-3.6c-2.3-0.5-4-2.5-4-4.9v-8.5C37.2,75.7,38.9,73.6,41.2,73.1z"/>
				<rect x="58.7" y="73.6" class="st16" width="121.8" height="8.7"/>
				<path class="st14" d="M180.5,69.6v16.1H80.2c-2.9,0-5.5-1.1-7.6-2.8c-2.4-2.1-3.9-5.2-3.9-8.6v-4.6H180.5z"/>
				<path class="st6" d="M310,77.6v8.2c0,4.3-3.1,7.9-7.3,8.6c-51.5,8.5-78.1-7-113.2,4.5l-9-3.8V68.1l9-3.8
					c7.7,2.8,15,4.2,22.2,4.8c16.8,1.4,33.3-1.8,54.5-2.3c10.7-0.3,22.5,0.1,36.2,2.1C306.8,69.6,310,73.2,310,77.6z"/>
				<path class="st7" d="M302.7,85.8c-51.5,8.5-78.1-7-113.2,4.5l-9-3.8V95l9,3.8c35.1-11.5,61.7,4,113.2-4.5
					c4.2-0.7,7.3-4.3,7.3-8.6v-8.2c0-0.1,0-0.1,0-0.2C309.9,81.6,306.9,85.1,302.7,85.8z"/>
				<polygon class="st17" points="189.5,64.3 189.5,98.8 180.5,95 180.5,68.1 				"/>
				<polygon class="st6" points="180.5,95 189.5,98.8 189.5,90.3 180.5,86.5 				"/>
				<path class="st18" d="M266.5,68c0,5-12.4,9.7-27.7,10.7c-15.3,0.9-27.7-2.4-27.7-7.3c0-0.5,0.1-1.1,0.4-1.6
					c0.2-0.3,0.5-0.4,0.8-0.4c16.6,1.3,33-1.8,54-2.3C266.4,67.3,266.5,67.6,266.5,68z"/>
				<path class="st19" d="M266.5,67.2c0,5-12.4,9.7-27.7,10.7s-27.7-2.4-27.7-7.3c0-0.5,0.1-1.1,0.4-1.6c0.2-0.3,0.5-0.4,0.8-0.4
					c16.6,1.3,33-1.8,54-2.3C266.4,66.5,266.5,66.8,266.5,67.2z"/>
				<path class="st20" d="M153.9,105c-0.7,1.2-2.3,1.7-3.6,1l-15.3-8.1c-0.7-0.4-1-1.2-0.6-1.9c0.4-0.7,1.2-1,1.9-0.6l12.8,6.8
					c1.3,0.7,2.8,0.2,3.6-1l9.3-16.3c0.4-0.7,1.3-0.9,1.9-0.5c0.7,0.4,0.9,1.3,0.5,1.9L153.9,105z"/>
				<path class="st7" d="M231.7,69.6c0,1-3,0.9-6.8,0.9c-3.8,0-6.8,0.1-6.8-0.9s3-1.8,6.8-1.8C228.6,67.8,231.7,68.6,231.7,69.6z"/>
				<path class="st14" d="M159.5,74.7L159.5,74.7c-1.1-4.1-0.2-8.5,2.5-11.7l11.6-14.1h-8.7l-14.4,16c-1.8,2-4.4,3.2-7.2,3.2H68.7
					v4.6c0,0.9,0.1,1.7,0.3,2.5c0.5,2.4,1.8,4.6,3.7,6.2c2,1.8,4.7,2.8,7.6,2.8h76.3l4.4,4.4c1.4,1.4,3.8,1.4,5.2,0l0.1-0.1
					c1.4-1.4,1.4-3.8,0-5.2l-3.9-3.9C160.9,78.1,160,76.5,159.5,74.7z"/>
				<path class="st16" d="M162.4,57.4l2,1.4l-17.7,20.4c-1.3,1.5-3.2,2.3-5.1,2.3H72.7c-2.4-2.1-3.9-5.2-3.9-8.6v-2h81.3L162.4,57.4
					z"/>
				<path class="st21" d="M162.2,55l1.3,1.4L148,73.1c-1.3,1.4-3.2,2.2-5.1,2.2H69c-0.2-0.8-0.3-1.6-0.3-2.5v-2h75.1
					c1.9,0,3.7-0.8,5-2.1L162.2,55z"/>
				<path class="st11" d="M165,85.6c0,0.9-0.7,1.5-1.5,1.5s-1.5-0.7-1.5-1.5c0-0.9,0.7-1.5,1.5-1.5S165,84.8,165,85.6z"/>
				<g>
					<path class="st6" d="M186.3,32.1c-9.9,4.2-18.2,10.9-24.2,19.4c-1,1.4-1.1,3.4-0.2,4.9c0.2,0.3,0.3,0.6,0.5,0.9
						c0.9,1.6,2.8,1.9,3.9,0.8c7.4-7.5,16.7-12.3,27.1-14c2.5-0.4,3.7-3.3,2.3-6c-0.7-1.2-1.4-2.4-2.2-3.7
						C192,32.2,188.9,31.1,186.3,32.1z"/>
					<g>
						<path class="st17" d="M196.1,39.3c-0.1-0.4-0.2-0.7-0.4-1.1c-0.2-0.3-0.4-0.6-0.5-0.9C195.5,38,195.8,38.7,196.1,39.3z"/>
						<path class="st17" d="M162.4,51.5c6.8-7.9,15.6-14,25.8-17.3c2.4-0.8,5.2,0.3,6.6,2.5c-0.4-0.7-0.9-1.5-1.3-2.2
							c-1.5-2.4-4.6-3.5-7.1-2.4c-9.9,4.2-18.2,10.9-24.2,19.4c-0.7,1-0.9,2.2-0.7,3.4C161.2,53.7,161.6,52.4,162.4,51.5z"/>
					</g>
				</g>
			</g>
			<g>
				<path class="st7" d="M425.8,127.1v47.4c0,0.8-0.7,1.5-1.5,1.5h0c-0.8,0-1.4,0.6-1.5,1.4l-4,96.2l-0.3,6.6
					c-0.4,8.9-7.7,16-16.6,16h-0.3c-6.5,0-12.1-3.7-14.8-9.1c-1.1-2.1-1.7-4.4-1.8-6.8l-0.3-6.6l-4-96.2c0-0.8-0.7-1.4-1.5-1.4h0
					c-0.8,0-1.5-0.7-1.5-1.5v-47.4c0-1.9,0.8-3.6,2.1-4.9c1.2-1.2,2.8-1.9,4.7-1.9h34.6c1.9,0,3.6,0.8,4.8,2
					C425.1,123.6,425.8,125.3,425.8,127.1z"/>
				<path class="st22" d="M424.6,127.1v47.4c0,0.8-0.6,1.5-1.4,1.5h0c-0.8,0-1.4,0.6-1.4,1.4l-3.8,96.2l-0.3,6.6
					c-0.3,8.9-7.3,16-15.8,16h-0.3c-6.1,0-11.5-3.7-14.1-9.1c-1-2.1-1.6-4.4-1.7-6.8l-0.3-6.6l-3.8-96.2c0-0.8-0.6-1.4-1.4-1.4h0
					c-0.8,0-1.4-0.7-1.4-1.5v-47.4c0-1.9,0.8-3.6,2-4.9c1.1-1.2,2.7-1.9,4.4-1.9h32.8c1.8,0,3.4,0.8,4.5,2
					C423.9,123.6,424.6,125.3,424.6,127.1z"/>
				<rect x="394.7" y="221.5" class="st23" width="14.3" height="65.6"/>
				<path class="st24" d="M401.9,224.4h-0.3c-7.9,0-14.4-6.4-14.4-14.4v-40.4c0-7.9,6.4-14.4,14.4-14.4h0.3
					c7.9,0,14.4,6.4,14.4,14.4v40.4C416.3,218,409.9,224.4,401.9,224.4z"/>
				<path class="st18" d="M401.9,155.3h-0.3c-7.9,0-14.4,6.4-14.4,14.4v1.2c0-7.9,6.4-14.4,14.4-14.4h0.3c7.9,0,14.4,6.4,14.4,14.4
					v-1.2C416.3,161.7,409.9,155.3,401.9,155.3z"/>
				<path class="st7" d="M401.9,218.1h-0.2c-4.4,0-8-3.6-8-8v-12.3c0-4.4,3.6-8,8-8h0.2c4.4,0,8,3.6,8,8v12.3
					C409.8,214.5,406.3,218.1,401.9,218.1z"/>
				<path class="st7" d="M406.4,164h-9.2c-0.6,0-1.1-0.5-1.1-1.1v0c0-0.6,0.5-1.1,1.1-1.1h9.2c0.6,0,1.1,0.5,1.1,1.1v0
					C407.5,163.5,407,164,406.4,164z"/>
				<path class="st7" d="M406.4,168.5h-9.2c-0.6,0-1.1-0.5-1.1-1.1v0c0-0.6,0.5-1.1,1.1-1.1h9.2c0.6,0,1.1,0.5,1.1,1.1v0
					C407.5,168,407,168.5,406.4,168.5z"/>
				<path class="st7" d="M406.4,173h-9.2c-0.6,0-1.1-0.5-1.1-1.1v0c0-0.6,0.5-1.1,1.1-1.1h9.2c0.6,0,1.1,0.5,1.1,1.1v0
					C407.5,172.5,407,173,406.4,173z"/>
				<g>
					<rect x="381" y="114.7" class="st24" width="41.2" height="7.5"/>
					<rect x="381" y="114.7" class="st14" width="41.2" height="1.7"/>
				</g>
				<g>
					<path class="st7" d="M382.1,101.1L382.1,101.1c-0.4,0-0.7,0.5-0.7,1.1l-0.6,23.3h2.6l-0.6-23.3
						C382.8,101.5,382.5,101.1,382.1,101.1z"/>
					<path class="st7" d="M388.8,101.1L388.8,101.1c-0.4,0-0.7,0.5-0.7,1.1l-0.6,23.3h2.6l-0.6-23.3
						C389.5,101.5,389.2,101.1,388.8,101.1z"/>
					<path class="st7" d="M395.5,101.1L395.5,101.1c-0.4,0-0.7,0.5-0.7,1.1l-0.6,23.3h2.6l-0.6-23.3
						C396.2,101.5,395.9,101.1,395.5,101.1z"/>
					<path class="st7" d="M402.1,101.1L402.1,101.1c-0.4,0-0.7,0.5-0.7,1.1l-0.6,23.3h2.6l-0.6-23.3
						C402.8,101.5,402.5,101.1,402.1,101.1z"/>
					<path class="st7" d="M408.8,101.1L408.8,101.1c-0.4,0-0.7,0.5-0.7,1.1l-0.6,23.3h2.6l-0.6-23.3
						C409.5,101.5,409.2,101.1,408.8,101.1z"/>
					<path class="st7" d="M415.5,101.1L415.5,101.1c-0.4,0-0.7,0.5-0.7,1.1l-0.6,23.3h2.6l-0.6-23.3
						C416.2,101.5,415.9,101.1,415.5,101.1z"/>
					<path class="st7" d="M422.1,101.1L422.1,101.1c-0.4,0-0.7,0.5-0.7,1.1l-0.6,23.3h2.6l-0.6-23.3
						C422.8,101.5,422.5,101.1,422.1,101.1z"/>
				</g>
				<path class="st7" d="M406.4,177.5h-9.2c-0.6,0-1.1-0.5-1.1-1.1v0c0-0.6,0.5-1.1,1.1-1.1h9.2c0.6,0,1.1,0.5,1.1,1.1v0
					C407.5,177,407,177.5,406.4,177.5z"/>
				<path class="st25" d="M423.9,122.4c-1.7,8.4-3.9,15.7-7.6,19h-29c-3.6-4.1-5.7-11.2-7.4-19.2c1.2-1.2,2.8-1.9,4.7-1.9h34.6
					C421,120.4,422.7,121.1,423.9,122.4z"/>
				<path class="st7" d="M418.8,273.7l-0.3,6.6c-0.4,8.9-7.7,16-16.6,16h-0.3c-8.9,0-16.3-7-16.6-16l-0.3-6.6
					C388.3,289.6,415.7,289,418.8,273.7z"/>
			</g>
			<g>
				<polygon class="st18" points="319.2,170.3 323.2,87 325.1,86.6 323.7,173.8 				"/>
				<path class="st26" d="M321.6,166.6c-0.1,1.1-1.1,2-2.3,1.9l-0.6,0c-1.4-0.1-2.6,0.9-2.8,2.3l-8.5,66.9c-0.3,2.6-2.7,4.3-5.3,4.1
					c-4.7-0.4-9.6,1-13.5,4.5c-6,5.5-7.4,14.7-3.3,21.7c1.7,3,4.2,5.2,7,6.7l-6.8,15.8c-0.3,0.6,0,1.3,0.7,1.6l2.7,1
					c0.6,0.2,1.3-0.1,1.5-0.7l5.2-16.3c5.8,1.7,12.4,0.4,17.3-4.3c4.2-4,5.8-10.1,4.8-15.8c-0.4-2.2-1.1-4.1-2.1-5.7
					c-2.5-4.3-3.5-9.4-2.8-14.4l2.6-20.4l11.6-12.8c1.3-1.4,2.1-3.2,2.3-5.1l3.5-27.6l-4-79.9c0-1.2-0.7-2.2-1.8-2.6l-1.8-0.7
					L321.6,166.6z M310.7,251.2c4.4,5.7,3.4,13.8-2.3,18.2c-5.7,4.4-13.8,3.4-18.2-2.3c-4.4-5.7-3.4-13.8,2.3-18.2
					C298.2,244.5,306.4,245.6,310.7,251.2z"/>
				<g>
					<path class="st19" d="M291.2,247.8c-5.7,4.4-6.7,12.6-2.3,18.2c0.6,0.8,1.4,1.5,2.1,2.2c-0.3-0.3-0.6-0.6-0.8-1
						c-4.4-5.7-3.4-13.8,2.3-18.2c4.8-3.8,11.5-3.5,16.1,0.1C304.1,244.3,296.6,243.6,291.2,247.8z"/>
					<path class="st19" d="M327.9,196.2c-0.2,1.9-1.1,3.7-2.3,5.1L314,214.2l-2.6,20.4c-0.6,5,0.3,10.1,2.8,14.4
						c0.9,1.6,1.7,3.5,2.1,5.7c1,5.7-0.6,11.8-4.8,15.8c-4.8,4.7-11.4,6-17.3,4.3l-5.2,16.3c-0.2,0.6-0.9,1-1.5,0.7l-2.1-0.8
						c0,0.4,0.3,0.8,0.7,1l2.7,1c0.6,0.2,1.3-0.1,1.5-0.7l5.2-16.3c5.8,1.7,12.4,0.4,17.3-4.3c4.2-4,5.8-10.1,4.8-15.8
						c-0.4-2.2-1.1-4.1-2.1-5.7c-2.5-4.3-3.5-9.4-2.8-14.4l2.6-20.4l11.6-12.8c1.3-1.4,2.1-3.2,2.3-5.1L327.9,196.2z"/>
					<path class="st19" d="M288,271.4c0.9,0.9,1.8,1.7,2.8,2.3l0.1-0.3C289.9,272.9,288.9,272.2,288,271.4z"/>
				</g>
				<g>
					<path class="st18" d="M296.7,276.3c2.7,0.6,5.6,0.6,8.3-0.2c-2.7,0.5-5.5,0.4-8.1-0.4L296.7,276.3z"/>
					<path class="st18" d="M308.9,237.4l8.5-66.9c0.1-0.9,0.7-1.6,1.5-2l-0.1,0c-1.4-0.1-2.6,0.9-2.8,2.3l-8.5,66.9
						c-0.2,1.8-1.5,3.2-3.1,3.8C306.6,241.3,308.6,239.7,308.9,237.4z"/>
					<path class="st18" d="M290.1,292.7l-2.6-1c-0.6-0.2-0.9-0.9-0.7-1.6l6.8-15.8c-2.8-1.5-5.2-3.7-7-6.7c-4.1-7-2.7-16.2,3.3-21.7
						c2.2-2,4.7-3.3,7.4-4c-3.2,0.5-6.2,2-8.8,4.3c-6,5.5-7.4,14.7-3.3,21.7c1.7,3,4.2,5.2,7,6.7l-6.8,15.8c-0.3,0.6,0,1.3,0.7,1.6
						l2.7,1C289.3,293.2,289.8,293,290.1,292.7z"/>
					<path class="st18" d="M309.9,269.2c5.7-4.4,6.7-12.6,2.3-18.2c-3.4-4.4-9-5.9-14-4.5c4.6-0.8,9.5,0.8,12.6,4.8
						c4.4,5.7,3.4,13.8-2.3,18.2c-1.3,1-2.8,1.7-4.3,2.2C306.2,271.3,308.1,270.5,309.9,269.2z"/>
				</g>
				<path class="st27" d="M323.2,256.1c1.2,1.2,1.3,3.2,0.1,4.4c-1.2,1.2-3.2,1.3-4.4,0.1c-1.2-1.2-1.3-3.2-0.1-4.4
					C320,254.9,322,254.9,323.2,256.1z"/>
				
					<rect x="323.1" y="257.4" transform="matrix(0.9999 -1.603494e-02 1.603494e-02 0.9999 -4.1055 5.2468)" class="st27" width="4.1" height="2.4"/>
				<polygon class="st19" points="329.7,167.8 324.9,86.8 323.7,86.7 324.6,167.3 				"/>
				<path class="st27" d="M323.7,86.7l-1.8,0.6c-1.1,0.3-1.9,1.4-2,2.5l-4.4,77.6l1.9,27.7c0.1,1.9,0.8,3.7,2.1,5.2l10.8,13.5
					l1.4,20.5c0.3,5-0.9,10.1-3.6,14.3c-1,1.6-1.9,3.4-2.4,5.6c-1.3,5.6,0,11.8,3.9,16c7.7,8.4,21.2,7.4,27.6-2.2
					c4.5-6.8,3.6-16-2.1-21.9c-3.6-3.7-8.5-5.4-13.2-5.3c-2.6,0.1-4.9-1.8-5.1-4.4l-4.6-67.3c-0.1-1.4-1.3-2.5-2.7-2.5l-0.6,0
					c-1.1,0-2.1-0.9-2.1-2L323.7,86.7z M351,248.7c5.4,4.7,6,12.9,1.3,18.3c-4.7,5.4-12.9,6-18.3,1.3c-5.4-4.7-6-12.9-1.3-18.3
					C337.4,244.5,345.6,243.9,351,248.7z"/>
				<g>
					<path class="st19" d="M355.4,266.4c-5.9,8.9-18,10.4-25.9,3.8c0,0,0.1,0.1,0.1,0.1c7.7,8.4,21.2,7.4,27.6-2.2
						c4.5-6.8,3.6-16-2.1-21.9c-0.5-0.5-1-0.9-1.5-1.3C359,250.7,359.8,259.7,355.4,266.4z"/>
					<path class="st19" d="M330.4,167.6l4.6,67.3c0.1,1.7,1.1,3,2.4,3.8c-0.4-0.6-0.6-1.3-0.7-2l-4.6-67.3c-0.1-1.1-0.9-2.1-1.9-2.4
						C330.2,167.1,330.3,167.3,330.4,167.6z"/>
					<path class="st19" d="M333.3,247c-5.7,4.4-6.7,12.6-2.3,18.3c0.6,0.8,1.4,1.5,2.1,2.2c-0.3-0.3-0.6-0.6-0.8-1
						c-4.4-5.7-3.4-13.9,2.3-18.3c4.8-3.8,11.5-3.5,16.1,0.1C346.1,243.5,338.6,242.8,333.3,247z"/>
				</g>
				<path class="st19" d="M325.8,175.7c0.8,0.8,0.8,2.1,0,2.9c-0.8,0.8-2.1,0.8-2.9,0c-0.8-0.8-0.8-2.1,0-2.9
					C323.7,174.9,325,174.9,325.8,175.7z"/>
				<path class="st18" d="M351.8,268.4c5.7-4.4,6.7-12.6,2.3-18.2c-3.4-4.4-9-5.9-14-4.5c4.6-0.8,9.5,0.8,12.6,4.8
					c4.4,5.7,3.4,13.8-2.3,18.2c-1.3,1-2.8,1.7-4.3,2.2C348.2,270.5,350.1,269.7,351.8,268.4z"/>
			</g>
			<g>
				<polygon class="st18" points="218.6,424.4 301.9,428.4 302.3,430.2 215.1,428.8 				"/>
				<path class="st26" d="M222.3,426.8c-1.1-0.1-2-1.1-1.9-2.3l0-0.6c0.1-1.4-0.9-2.6-2.3-2.8l-66.9-8.5c-2.6-0.3-4.3-2.7-4.1-5.3
					c0.4-4.7-1-9.6-4.5-13.5c-5.5-6-14.7-7.4-21.7-3.3c-3,1.7-5.2,4.2-6.7,7l-15.8-6.8c-0.6-0.3-1.3,0-1.6,0.7l-1,2.7
					c-0.2,0.6,0.1,1.3,0.7,1.5l16.3,5.2c-1.7,5.8-0.4,12.4,4.3,17.3c4,4.2,10.1,5.8,15.8,4.8c2.2-0.4,4.1-1.1,5.7-2.1
					c4.3-2.5,9.4-3.5,14.4-2.8l20.4,2.6l12.8,11.6c1.4,1.3,3.2,2.1,5.1,2.3l27.6,3.5l79.9-4c1.2,0,2.2-0.7,2.6-1.8l0.7-1.8
					L222.3,426.8z M137.6,415.9c-5.7,4.4-13.8,3.4-18.2-2.3c-4.4-5.7-3.4-13.8,2.3-18.2c5.7-4.4,13.8-3.4,18.2,2.3
					C144.3,403.3,143.3,411.5,137.6,415.9z"/>
				<g>
					<path class="st19" d="M141.1,396.4c-4.4-5.7-12.6-6.7-18.2-2.3c-0.8,0.6-1.5,1.4-2.2,2.1c0.3-0.3,0.6-0.6,1-0.8
						c5.7-4.4,13.8-3.4,18.2,2.3c3.8,4.8,3.5,11.5-0.1,16.1C144.6,409.2,145.2,401.7,141.1,396.4z"/>
					<path class="st19" d="M192.7,433.1c-1.9-0.2-3.7-1.1-5.1-2.3l-12.8-11.6l-20.4-2.6c-5-0.6-10.1,0.3-14.4,2.8
						c-1.6,0.9-3.5,1.7-5.7,2.1c-5.7,1-11.8-0.6-15.8-4.8c-4.7-4.8-6-11.4-4.3-17.3l-16.3-5.2c-0.6-0.2-1-0.9-0.7-1.5l0.8-2.1
						c-0.4,0-0.8,0.3-1,0.7l-1,2.7c-0.2,0.6,0.1,1.3,0.7,1.5l16.3,5.2c-1.7,5.8-0.4,12.4,4.3,17.3c4,4.2,10.1,5.8,15.8,4.8
						c2.2-0.4,4.1-1.1,5.7-2.1c4.3-2.5,9.4-3.5,14.4-2.8l20.4,2.6l12.8,11.6c1.4,1.3,3.2,2.1,5.1,2.3L192.7,433.1z"/>
					<path class="st19" d="M117.4,393.1c-0.9,0.9-1.7,1.8-2.3,2.8l0.3,0.1C115.9,395.1,116.6,394.1,117.4,393.1z"/>
				</g>
				<g>
					<path class="st18" d="M112.6,401.9c-0.6,2.7-0.6,5.6,0.2,8.3c-0.5-2.7-0.4-5.5,0.4-8.1L112.6,401.9z"/>
					<path class="st18" d="M151.5,414l66.9,8.5c0.9,0.1,1.6,0.7,2,1.5l0-0.1c0.1-1.4-0.9-2.6-2.3-2.8l-66.9-8.5
						c-1.8-0.2-3.2-1.5-3.8-3.1C147.6,411.8,149.2,413.7,151.5,414z"/>
					<path class="st18" d="M96.2,395.2l1-2.6c0.2-0.6,0.9-0.9,1.6-0.7l15.8,6.8c1.5-2.8,3.7-5.2,6.7-7c7-4.1,16.2-2.7,21.7,3.3
						c2,2.2,3.3,4.7,4,7.4c-0.5-3.2-2-6.2-4.3-8.8c-5.5-6-14.7-7.4-21.7-3.3c-3,1.7-5.2,4.2-6.7,7l-15.8-6.8c-0.6-0.3-1.3,0-1.6,0.7
						l-1,2.7C95.7,394.4,95.8,394.9,96.2,395.2z"/>
					<path class="st18" d="M119.7,415c4.4,5.7,12.6,6.7,18.2,2.3c4.4-3.4,5.9-9,4.5-14c0.8,4.6-0.8,9.5-4.8,12.6
						c-5.7,4.4-13.8,3.4-18.2-2.3c-1-1.3-1.7-2.8-2.2-4.3C117.6,411.3,118.4,413.3,119.7,415z"/>
				</g>
				<path class="st27" d="M132.8,428.4c-1.2,1.2-3.2,1.3-4.4,0.1c-1.2-1.2-1.3-3.2-0.1-4.4c1.2-1.2,3.2-1.3,4.4-0.1
					C133.9,425.2,134,427.1,132.8,428.4z"/>
				
					<rect x="129" y="428.2" transform="matrix(0.9999 -1.606296e-02 1.606296e-02 0.9999 -6.8948 2.1474)" class="st27" width="2.4" height="4.1"/>
				<polygon class="st19" points="221.1,434.8 302,430 302.2,428.8 221.6,429.7 				"/>
				<path class="st27" d="M302.2,428.8l-0.6-1.8c-0.3-1.1-1.4-1.9-2.5-2l-77.6-4.4l-27.7,1.9c-1.9,0.1-3.7,0.8-5.2,2.1L175,435.4
					l-20.5,1.4c-5,0.3-10.1-0.9-14.3-3.6c-1.6-1-3.4-1.9-5.6-2.4c-5.6-1.3-11.8,0-16,3.9c-8.4,7.7-7.4,21.2,2.2,27.6
					c6.8,4.5,16,3.6,21.9-2.1c3.7-3.6,5.4-8.5,5.3-13.2c-0.1-2.6,1.8-4.9,4.4-5.1l67.3-4.6c1.4-0.1,2.5-1.3,2.5-2.7l0-0.6
					c0-1.1,0.9-2.1,2-2.1L302.2,428.8z M140.2,456.2c-4.7,5.4-12.9,6-18.3,1.3c-5.4-4.7-6-12.9-1.3-18.3c4.7-5.4,12.9-6,18.3-1.3
					C144.4,442.6,144.9,450.8,140.2,456.2z"/>
				<g>
					<path class="st19" d="M122.5,460.5c-8.9-5.9-10.4-18-3.8-25.9c0,0-0.1,0.1-0.1,0.1c-8.4,7.7-7.4,21.2,2.2,27.6
						c6.8,4.5,16,3.6,21.9-2.1c0.5-0.5,0.9-1,1.3-1.5C138.2,464.1,129.1,464.9,122.5,460.5z"/>
					<path class="st19" d="M221.3,435.5l-67.3,4.6c-1.7,0.1-3,1.1-3.8,2.4c0.6-0.4,1.3-0.6,2-0.7l67.3-4.6c1.1-0.1,2.1-0.9,2.4-1.9
						C221.7,435.4,221.5,435.5,221.3,435.5z"/>
					<path class="st19" d="M141.9,438.4c-4.4-5.7-12.6-6.7-18.3-2.3c-0.8,0.6-1.5,1.4-2.2,2.1c0.3-0.3,0.6-0.6,1-0.8
						c5.7-4.4,13.9-3.4,18.3,2.3c3.8,4.8,3.5,11.5-0.1,16.1C145.4,451.3,146.1,443.8,141.9,438.4z"/>
				</g>
				<path class="st19" d="M213.2,430.9c-0.8,0.8-2.1,0.8-2.9,0c-0.8-0.8-0.8-2.1,0-2.9c0.8-0.8,2.1-0.8,2.9,0
					C214,428.8,214,430.1,213.2,430.9z"/>
				<path class="st18" d="M120.5,457c4.4,5.7,12.6,6.7,18.2,2.3c4.4-3.4,5.9-9,4.5-14c0.8,4.6-0.8,9.5-4.8,12.6
					c-5.7,4.4-13.8,3.4-18.2-2.3c-1-1.3-1.7-2.8-2.2-4.3C118.4,453.3,119.2,455.3,120.5,457z"/>
			</g>
			<g>
				<path class="st28" d="M252.8,230.3l33.2-3.5c0.7-0.1,1.2-0.7,1.2-1.3v-1.7c0-0.7-0.6-1.3-1.3-1.4l-28.6-1.1c-0.6,0-1-0.5-1-1.1
					v0c0-0.6,0.5-1.1,1-1.1l28.6-1.1c0.7,0,1.3-0.6,1.3-1.4v0c0-0.7-0.6-1.3-1.3-1.4l-28.6-1.1c-0.6,0-1-0.5-1-1.1v0
					c0-0.6,0.5-1.1,1-1.1l28.6-1.1c0.7,0,1.3-0.6,1.3-1.4v0c0-0.7-0.6-1.3-1.3-1.4l-28.6-1.1c-0.6,0-1-0.5-1-1.1v0
					c0-0.6,0.5-1.1,1-1.1l28.6-1.1c0.7,0,1.3-0.6,1.3-1.4v0c0-0.7-0.6-1.3-1.3-1.4l-28.6-1.1c-0.6,0-1-0.5-1-1.1v0
					c0-0.6,0.5-1.1,1-1.1l28.6-1.1c0.7,0,1.3-0.6,1.3-1.4v0c0-0.7-0.6-1.3-1.3-1.4l-28.6-1.1c-0.6,0-1-0.5-1-1.1v0
					c0-0.6,0.5-1.1,1-1.1l28.6-1.1c0.7,0,1.3-0.6,1.3-1.4v0c0-0.7-0.6-1.3-1.3-1.4l-28.6-1.1c-0.6,0-1-0.5-1-1.1v0
					c0-0.6,0.5-1.1,1-1.1l28.6-1.1c0.7,0,1.3-0.6,1.3-1.4v0c0-0.7-0.6-1.3-1.3-1.4l-28.6-1.1c-0.6,0-1-0.5-1-1.1v0
					c0-0.6,0.5-1.1,1-1.1l28.6-1.1c0.7,0,1.3-0.6,1.3-1.4v0c0-0.7-0.6-1.3-1.3-1.4l-28.6-1.1c-0.6,0-1-0.5-1-1.1v0
					c0-0.6,0.5-1.1,1-1.1l28.6-1.1c0.7,0,1.3-0.6,1.3-1.4v0c0-0.7-0.6-1.3-1.3-1.4l-28.6-1.1c-0.6,0-1-0.5-1-1.1v0
					c0-0.6,0.5-1.1,1-1.1l28.6-1.1c0.7,0,1.3-0.6,1.3-1.4v0c0-0.7-0.6-1.3-1.3-1.4l-28.6-1.1c-0.6,0-1-0.5-1-1.1v0
					c0-0.6,0.5-1.1,1-1.1l28.6-1.1c0.7,0,1.3-0.6,1.3-1.4v0c0-0.7-0.6-1.3-1.3-1.4l-28.6-1.1c-0.6,0-1-0.5-1-1.1v0
					c0-0.6,0.5-1.1,1-1.1l28.6-1.1c0.7,0,1.3-0.6,1.3-1.4v0c0-0.7-0.6-1.3-1.3-1.4l-28.6-1.1c-0.6,0-1-0.5-1-1.1v0
					c0-0.6,0.5-1.1,1-1.1l28.6-1.1c0.7,0,1.3-0.6,1.3-1.4v0c0-0.7-0.6-1.3-1.3-1.4l-28.6-1.1c-0.6,0-1-0.5-1-1.1v0
					c0-0.6,0.5-1.1,1-1.1l28.6-1.1c0.7,0,1.3-0.6,1.3-1.4v0c0-0.7-0.6-1.3-1.3-1.4l-28.6-1.1c-0.6,0-1-0.5-1-1.1v0
					c0-0.6,0.5-1.1,1-1.1l28.6-1.1c0.7,0,1.3-0.6,1.3-1.4v0c0-0.7-0.6-1.3-1.3-1.4l-28.6-1.1c-0.6,0-1-0.5-1-1.1v0
					c0-0.6,0.5-1.1,1-1.1l28.6-1.1c0.7,0,1.3-0.6,1.3-1.4v-1.7c0-0.7-0.5-1.3-1.2-1.3l-33.2-3.5c-7.4-0.8-13.8,5-13.8,12.4v94.1
					C239,225.3,245.5,231.1,252.8,230.3z"/>
				<path class="st29" d="M251.6,111.5l33.2,3.5c0.7,0.1,1.2,0.7,1.2,1.3v1.7c0,0.7-0.6,1.3-1.3,1.4l-28.6,1.1c-0.6,0-1,0.5-1,1.1v0
					c0,0.6,0.5,1.1,1,1.1l28.6,1.1c0.7,0,1.3,0.6,1.3,1.4v0c0,0.7-0.6,1.3-1.3,1.4l-28.6,1.1c-0.6,0-1,0.5-1,1.1v0
					c0,0.6,0.5,1.1,1,1.1l28.6,1.1c0.7,0,1.3,0.6,1.3,1.4v0c0,0.7-0.6,1.3-1.3,1.4l-28.6,1.1c-0.6,0-1,0.5-1,1.1v0
					c0,0.6,0.5,1.1,1,1.1l28.6,1.1c0.7,0,1.3,0.6,1.3,1.4v0c0,0.7-0.6,1.3-1.3,1.4l-28.6,1.1c-0.6,0-1,0.5-1,1.1v0
					c0,0.6,0.5,1.1,1,1.1l28.6,1.1c0.7,0,1.3,0.6,1.3,1.4v0c0,0.7-0.6,1.3-1.3,1.4l-28.6,1.1c-0.6,0-1,0.5-1,1.1v0
					c0,0.6,0.5,1.1,1,1.1l28.6,1.1c0.7,0,1.3,0.6,1.3,1.4v0c0,0.7-0.6,1.3-1.3,1.4l-28.6,1.1c-0.6,0-1,0.5-1,1.1v0
					c0,0.6,0.5,1.1,1,1.1l28.6,1.1c0.7,0,1.3,0.6,1.3,1.4v0c0,0.7-0.6,1.3-1.3,1.4l-28.6,1.1c-0.6,0-1,0.5-1,1.1v0
					c0,0.6,0.5,1.1,1,1.1l28.6,1.1c0.7,0,1.3,0.6,1.3,1.4v0c0,0.7-0.6,1.3-1.3,1.4l-28.6,1.1c-0.6,0-1,0.5-1,1.1v0
					c0,0.6,0.5,1.1,1,1.1l28.6,1.1c0.7,0,1.3,0.6,1.3,1.4v0c0,0.7-0.6,1.3-1.3,1.4l-28.6,1.1c-0.6,0-1,0.5-1,1.1v0
					c0,0.6,0.5,1.1,1,1.1l28.6,1.1c0.7,0,1.3,0.6,1.3,1.4v0c0,0.7-0.6,1.3-1.3,1.4l-28.6,1.1c-0.6,0-1,0.5-1,1.1v0
					c0,0.6,0.5,1.1,1,1.1l28.6,1.1c0.7,0,1.3,0.6,1.3,1.4v0c0,0.7-0.6,1.3-1.3,1.4l-28.6,1.1c-0.6,0-1,0.5-1,1.1v0
					c0,0.6,0.5,1.1,1,1.1l28.6,1.1c0.7,0,1.3,0.6,1.3,1.4v0c0,0.7-0.6,1.3-1.3,1.4l-28.6,1.1c-0.6,0-1,0.5-1,1.1v0
					c0,0.6,0.5,1.1,1,1.1l28.6,1.1c0.7,0,1.3,0.6,1.3,1.4v0c0,0.7-0.6,1.3-1.3,1.4l-28.6,1.1c-0.6,0-1,0.5-1,1.1v0
					c0,0.6,0.5,1.1,1,1.1l28.6,1.1c0.7,0,1.3,0.6,1.3,1.4v0c0,0.7-0.6,1.3-1.3,1.4l-28.6,1.1c-0.6,0-1,0.5-1,1.1v0
					c0,0.6,0.5,1.1,1,1.1l28.6,1.1c0.7,0,1.3,0.6,1.3,1.4v0c0,0.7-0.6,1.3-1.3,1.4l-28.6,1.1c-0.6,0-1,0.5-1,1.1v0
					c0,0.6,0.5,1.1,1,1.1l28.6,1.1c0.7,0,1.3,0.6,1.3,1.4v1.7c0,0.7-0.5,1.3-1.2,1.3l-33.2,3.5c-0.2,0-0.5,0-0.7,0.1
					c0.6,0,1.3,0,1.9-0.1l33.2-3.5c0.7-0.1,1.2-0.7,1.2-1.3v-1.7c0-0.7-0.6-1.3-1.3-1.4l-28.6-1.1c-0.6,0-1-0.5-1-1.1v0
					c0-0.6,0.5-1.1,1-1.1l28.6-1.1c0.7,0,1.3-0.6,1.3-1.4v0c0-0.7-0.6-1.3-1.3-1.4l-28.6-1.1c-0.6,0-1-0.5-1-1.1v0
					c0-0.6,0.5-1.1,1-1.1l28.6-1.1c0.7,0,1.3-0.6,1.3-1.4v0c0-0.7-0.6-1.3-1.3-1.4l-28.6-1.1c-0.6,0-1-0.5-1-1.1v0
					c0-0.6,0.5-1.1,1-1.1l28.6-1.1c0.7,0,1.3-0.6,1.3-1.4v0c0-0.7-0.6-1.3-1.3-1.4l-28.6-1.1c-0.6,0-1-0.5-1-1.1v0
					c0-0.6,0.5-1.1,1-1.1l28.6-1.1c0.7,0,1.3-0.6,1.3-1.4v0c0-0.7-0.6-1.3-1.3-1.4l-28.6-1.1c-0.6,0-1-0.5-1-1.1v0
					c0-0.6,0.5-1.1,1-1.1l28.6-1.1c0.7,0,1.3-0.6,1.3-1.4v0c0-0.7-0.6-1.3-1.3-1.4l-28.6-1.1c-0.6,0-1-0.5-1-1.1v0
					c0-0.6,0.5-1.1,1-1.1l28.6-1.1c0.7,0,1.3-0.6,1.3-1.4v0c0-0.7-0.6-1.3-1.3-1.4l-28.6-1.1c-0.6,0-1-0.5-1-1.1v0
					c0-0.6,0.5-1.1,1-1.1l28.6-1.1c0.7,0,1.3-0.6,1.3-1.4v0c0-0.7-0.6-1.3-1.3-1.4l-28.6-1.1c-0.6,0-1-0.5-1-1.1v0
					c0-0.6,0.5-1.1,1-1.1l28.6-1.1c0.7,0,1.3-0.6,1.3-1.4v0c0-0.7-0.6-1.3-1.3-1.4l-28.6-1.1c-0.6,0-1-0.5-1-1.1v0
					c0-0.6,0.5-1.1,1-1.1l28.6-1.1c0.7,0,1.3-0.6,1.3-1.4v0c0-0.7-0.6-1.3-1.3-1.4l-28.6-1.1c-0.6,0-1-0.5-1-1.1v0
					c0-0.6,0.5-1.1,1-1.1l28.6-1.1c0.7,0,1.3-0.6,1.3-1.4v0c0-0.7-0.6-1.3-1.3-1.4l-28.6-1.1c-0.6,0-1-0.5-1-1.1v0
					c0-0.6,0.5-1.1,1-1.1l28.6-1.1c0.7,0,1.3-0.6,1.3-1.4v0c0-0.7-0.6-1.3-1.3-1.4l-28.6-1.1c-0.6,0-1-0.5-1-1.1v0
					c0-0.6,0.5-1.1,1-1.1l28.6-1.1c0.7,0,1.3-0.6,1.3-1.4v0c0-0.7-0.6-1.3-1.3-1.4l-28.6-1.1c-0.6,0-1-0.5-1-1.1v0
					c0-0.6,0.5-1.1,1-1.1l28.6-1.1c0.7,0,1.3-0.6,1.3-1.4v0c0-0.7-0.6-1.3-1.3-1.4l-28.6-1.1c-0.6,0-1-0.5-1-1.1v0
					c0-0.6,0.5-1.1,1-1.1l28.6-1.1c0.7,0,1.3-0.6,1.3-1.4v0c0-0.7-0.6-1.3-1.3-1.4l-28.6-1.1c-0.6,0-1-0.5-1-1.1v0
					c0-0.6,0.5-1.1,1-1.1l28.6-1.1c0.7,0,1.3-0.6,1.3-1.4v-1.7c0-0.7-0.5-1.3-1.2-1.3l-33.2-3.5c-0.7-0.1-1.3-0.1-1.9-0.1
					C251.1,111.4,251.3,111.4,251.6,111.5z"/>
				<path class="st30" d="M240.9,217.9v-94.1c0-6.6,5.1-11.9,11.5-12.4c-7.2-0.5-13.4,5.2-13.4,12.4v94.1c0,7.3,6.2,12.9,13.4,12.4
					C246,229.8,240.9,224.5,240.9,217.9z"/>
			</g>
			<g>
				<path class="st31" d="M522.6,441.7v55.9c0,4.1-3.3,7.5-7.5,7.5h-26c-4.1,0-7.5-3.3-7.5-7.5v-55.9c0-3.8,3.1-6.8,6.8-6.8h27.3
					C519.6,434.9,522.6,437.9,522.6,441.7z"/>
				<path class="st32" d="M520.6,441.7v55.9c0,4.1-3,7.5-6.7,7.5h-23.4c-3.7,0-6.7-3.3-6.7-7.5v-55.9c0-3.8,2.7-6.8,6.1-6.8h24.6
					C517.8,434.9,520.6,437.9,520.6,441.7z"/>
				<g>
					<path class="st30" d="M491.7,497.5v-55.9c0-3.8,1.3-6.8,2.8-6.8h-2.8c-2.9,0-5.2,3-5.2,6.8v55.9c0,4.1,2.6,7.5,5.7,7.5h2.6
						C493.1,505,491.7,501.7,491.7,497.5z"/>
				</g>
				<rect x="489.3" y="429.1" class="st31" width="25.7" height="5.8"/>
				<path class="st33" d="M514.1,413.1H490c-1.2,0-2.2,1-2.2,2.2V432h28.4v-16.7C516.3,414.1,515.3,413.1,514.1,413.1z"/>
				<path class="st14" d="M510.2,404.2h-16.7c-1.1,0-1.9,0.9-1.9,1.9v7h20.5v-7C512.1,405.1,511.3,404.2,510.2,404.2z"/>
				<path class="st33" d="M509.4,404.2h-15c-0.9,0-1.7,0.9-1.7,1.9v7h18.4v-7C511.1,405.1,510.3,404.2,509.4,404.2z"/>
				<path class="st14" d="M509.6,388.4v15.9h-15v-15.9c0-0.5,0.5-0.9,0.9-0.8c0,0,0,0,0,0c3.8,0.8,7.6,0.9,11.3,0.3
					c0.6-0.1,1.2-0.2,1.8-0.3C509.1,387.5,509.6,387.9,509.6,388.4z"/>
				<path class="st33" d="M506.8,388.4v15.8h-11.3v-15c0-0.6,0.5-1,1.1-0.9C500,388.9,503.4,388.9,506.8,388.4z"/>
				<circle class="st14" cx="502.1" cy="393" r="2.6"/>
				<path class="st13" d="M502.9,393c0,0.4-0.3,0.8-0.8,0.8s-0.8-0.3-0.8-0.8c0-0.4,0.3-0.8,0.8-0.8S502.9,392.6,502.9,393z"/>
				<g>
					<path class="st14" d="M489.5,431.3h-0.9v-15.5c0-0.3,0.2-0.5,0.5-0.5h0c0.3,0,0.5,0.2,0.5,0.5V431.3z"/>
					<path class="st14" d="M491.3,431.3h-0.9v-15.5c0-0.3,0.2-0.5,0.5-0.5h0c0.3,0,0.5,0.2,0.5,0.5V431.3z"/>
					<path class="st14" d="M493,431.3h-0.9v-15.5c0-0.3,0.2-0.5,0.5-0.5h0c0.3,0,0.5,0.2,0.5,0.5V431.3z"/>
					<path class="st14" d="M494.7,431.3h-0.9v-15.5c0-0.3,0.2-0.5,0.5-0.5h0c0.3,0,0.5,0.2,0.5,0.5V431.3z"/>
					<path class="st14" d="M496.4,431.3h-0.9v-15.5c0-0.3,0.2-0.5,0.5-0.5h0c0.3,0,0.5,0.2,0.5,0.5V431.3z"/>
					<path class="st14" d="M498.2,431.3h-0.9v-15.5c0-0.3,0.2-0.5,0.5-0.5h0c0.3,0,0.5,0.2,0.5,0.5V431.3z"/>
					<path class="st14" d="M499.9,431.3H499v-15.5c0-0.3,0.2-0.5,0.5-0.5h0c0.3,0,0.5,0.2,0.5,0.5V431.3z"/>
					<path class="st14" d="M501.6,431.3h-0.9v-15.5c0-0.3,0.2-0.5,0.5-0.5h0c0.3,0,0.5,0.2,0.5,0.5V431.3z"/>
					<path class="st14" d="M503.4,431.3h-0.9v-15.5c0-0.3,0.2-0.5,0.5-0.5h0c0.3,0,0.5,0.2,0.5,0.5V431.3z"/>
					<path class="st14" d="M505.1,431.3h-0.9v-15.5c0-0.3,0.2-0.5,0.5-0.5h0c0.3,0,0.5,0.2,0.5,0.5V431.3z"/>
					<path class="st14" d="M506.8,431.3h-0.9v-15.5c0-0.3,0.2-0.5,0.5-0.5h0c0.3,0,0.5,0.2,0.5,0.5V431.3z"/>
					<path class="st14" d="M508.5,431.3h-0.9v-15.5c0-0.3,0.2-0.5,0.5-0.5h0c0.3,0,0.5,0.2,0.5,0.5V431.3z"/>
					<path class="st14" d="M510.3,431.3h-0.9v-15.5c0-0.3,0.2-0.5,0.5-0.5h0c0.3,0,0.5,0.2,0.5,0.5V431.3z"/>
					<path class="st14" d="M512,431.3h-0.9v-15.5c0-0.3,0.2-0.5,0.5-0.5h0c0.3,0,0.5,0.2,0.5,0.5V431.3z"/>
					<path class="st14" d="M513.7,431.3h-0.9v-15.5c0-0.3,0.2-0.5,0.5-0.5h0c0.3,0,0.5,0.2,0.5,0.5V431.3z"/>
					<path class="st14" d="M515.5,431.3h-0.9v-15.5c0-0.3,0.2-0.5,0.5-0.5h0c0.3,0,0.5,0.2,0.5,0.5V431.3z"/>
				</g>
				<path class="st34" d="M509.4,384.2h-15.1c-1.5,0-2.7,1.2-2.7,2.7v26.2h20.4v-26.2C512.1,385.4,510.9,384.2,509.4,384.2z"/>
				<path class="st18" d="M522.6,497.4v0.1c0,4.1-3.3,7.5-7.5,7.5h-26c-4.1,0-7.5-3.3-7.5-7.5v-0.1H522.6z"/>
				<path class="st35" d="M505.3,406.7h-10.9c-0.5,0-0.9-0.4-0.9-0.9v0c0-0.5,0.4-0.9,0.9-0.9h10.9c0.5,0,0.9,0.4,0.9,0.9v0
					C506.2,406.3,505.8,406.7,505.3,406.7z"/>
				<path class="st35" d="M503.9,415.4h-14.1c-0.6,0-1.1-0.5-1.1-1.1v0c0-0.6,0.5-1.1,1.1-1.1h14.1c0.6,0,1.1,0.5,1.1,1.1v0
					C505.1,414.9,504.6,415.4,503.9,415.4z"/>
			</g>
			<g>
				<path class="st28" d="M218.2,202.4v90.2c0,0.8-0.2,1.6-0.6,2.3c-0.8,1.6-2.5,2.7-4.4,2.7h-39.3c-1.9,0-3.6-1.1-4.4-2.7
					c-0.4-0.7-0.6-1.5-0.6-2.3v-90.2c0-15.4,11.6-22.6,12.8-40c0.1-0.9,0.1-1.9,0.1-2.8h23.5c0,1,0,1.9,0.1,2.8
					C206.6,179.9,218.2,187,218.2,202.4z"/>
				<path class="st36" d="M209.7,202.4v90.2c0,0.8-0.2,1.6-0.4,2.3c-0.6,1.6-1.8,2.7-3.2,2.7h-28.5c-1.4,0-2.6-1.1-3.2-2.7
					c-0.3-0.7-0.4-1.5-0.4-2.3v-90.2c0-15.4,8.4-22.6,9.3-40c0-0.9,0.1-1.9,0.1-2.8h17.1c0,1,0,1.9,0.1,2.8
					C201.3,179.9,209.7,187,209.7,202.4z"/>
				<g>
					<g>
						<path class="st30" d="M180.3,294.9c-0.2-0.7-0.3-1.5-0.3-2.3v-90.2c0-15.4,6.6-22.6,7.3-40c0-0.9,0.1-1.9,0.1-2.8h-4
							c0,1,0,1.9-0.1,2.8c-0.8,17.5-9.3,24.6-9.3,40v90.2c0,0.8,0.2,1.6,0.4,2.3c0.6,1.6,1.8,2.7,3.2,2.7h5.2
							C181.7,297.6,180.8,296.5,180.3,294.9z"/>
					</g>
					<g class="st37">
						<path class="st30" d="M206.4,173.1c2.1,10.5,6,17.5,6,29.3v90.2c0,0.8-0.1,1.6-0.3,2.3c-0.5,1.6-1.4,2.7-2.5,2.7h0.9
							c1.4,0,2.6-1.1,3.2-2.7c0.3-0.7,0.4-1.5,0.4-2.3v-90.2C214.1,190.6,209.1,183.6,206.4,173.1z"/>
					</g>
				</g>
				<path class="st14" d="M204.7,145.2h-22.3c-1.1,0-2,0.9-2,2v12.2h26.2v-12.2C206.7,146.1,205.8,145.2,204.7,145.2z"/>
				<path class="st33" d="M199.9,145.2h-15.5c-0.8,0-1.4,0.9-1.4,2v12.2h18.2v-12.2C201.3,146.1,200.7,145.2,199.9,145.2z"/>
				<path class="st18" d="M196.1,145.2h-7.8c-0.4,0-0.7,0.9-0.7,2v12.2h9.1v-12.2C196.8,146.1,196.4,145.2,196.1,145.2z"/>
				<path class="st14" d="M198.7,147.1c0,3.1-2.4,5.6-5.4,5.6h-0.1c-2.9,0-5.3-2.5-5.4-5.6h-0.3v1c0,3.1,2.5,5.7,5.7,5.7h0.1
					c3.1,0,5.7-2.5,5.7-5.7v-1H198.7z"/>
				<g>
					<path class="st18" d="M205.5,162.4h-23.7c0.1-0.9,0.1-1.9,0.1-2.8h23.5C205.4,160.5,205.4,161.5,205.5,162.4z"/>
				</g>
				<rect x="173.9" y="297.6" class="st38" width="38.5" height="1.6"/>
				<g>
					<path class="st18" d="M217.6,294.9c-0.8,1.6-2.5,2.7-4.4,2.7h-0.8v1.6h-38.5v-1.6c-1.9,0-3.6-1.1-4.4-2.7H217.6z"/>
				</g>
				<rect x="180.5" y="147.1" class="st24" width="26.2" height="0.9"/>
			</g>
			<g>
				<path class="st20" d="M251.5,273.2v-0.8c-0.4-0.1-0.7-0.1-1-0.2L251.5,273.2z M251.5,273.2v-0.8c-0.4-0.1-0.7-0.1-1-0.2
					L251.5,273.2z M251.5,273.2v-0.8c-0.4-0.1-0.7-0.1-1-0.2L251.5,273.2z M251.5,273.2v-0.8c-0.4-0.1-0.7-0.1-1-0.2L251.5,273.2z
					 M251.5,273.2v-0.8c-0.4-0.1-0.7-0.1-1-0.2L251.5,273.2z M251.5,273.2v-0.8c-0.4-0.1-0.7-0.1-1-0.2L251.5,273.2z M251.5,273.2
					v-0.8c-0.4-0.1-0.7-0.1-1-0.2L251.5,273.2z M243.8,247.8c-0.4,0.3-0.6,0.7-0.6,1.2v4.9c0,0.9-0.7,1.6-1.6,1.6h0
					c-0.9,0-1.6-0.7-1.6-1.6v-1.2h-2.8c-0.7,0-1.4,0.5-1.6,1.1c-0.1,0.2-0.1,0.4-0.1,0.7v61.1c0,1,0.8,1.8,1.8,1.8h2.8v-1.2
					c0-0.9,0.7-1.6,1.6-1.6h0c0.9,0,1.6,0.7,1.6,1.6v4.9c0,0.8,0.6,1.4,1.4,1.4h18.9c0.8,0,1.4-0.6,1.4-1.4v-4.9
					c0-0.9,0.7-1.6,1.6-1.6h0c0.9,0,1.6,0.7,1.6,1.6v1.2h2.8c0,0,0,0,0.1,0c0.9,0,1.7-0.8,1.7-1.8v-61.1c0-1-0.8-1.8-1.8-1.8h-2.8
					v1.2c0,0.9-0.7,1.6-1.6,1.6h0c-0.9,0-1.6-0.7-1.6-1.6V249c0-0.8-0.6-1.4-1.4-1.4h-18.9C244.3,247.6,244,247.7,243.8,247.8z
					 M254.1,253.6c3.1,0,5.7,0.8,5.7,1.9c0,0.7-1.3,1.4-3.2,1.7v1.6l2.5,2.5c0.6,0.6,0.9,1.6,0.6,2.4c-0.1,0.4-0.3,0.7-0.6,1
					l-2.5,2.5v1.9c1.9,0.3,3.2,0.9,3.2,1.7c0,0.7-1.3,1.4-3.2,1.7v8.6c0.2,0.2,0.5,0.3,0.7,0.5c0,0,0,0,0,0c0.2,0.2,0.4,0.4,0.5,0.6
					c0,0,0.1,0.1,0.1,0.1c0,0.1,0.1,0.1,0.1,0.2c0.1,0.1,0.1,0.2,0.2,0.3c0,0.1,0.1,0.1,0.1,0.2c0,0.1,0.1,0.1,0.1,0.2
					c0,0,0,0.1,0.1,0.1c0,0.1,0.1,0.2,0.1,0.3c0,0,0,0.1,0,0.1c0,0.1,0.1,0.2,0.1,0.3c0,0,0,0,0,0.1c0,0.1,0,0.3,0.1,0.4
					c0,0,0,0.1,0,0.1c0,0.1,0,0.3,0,0.4c0,0.1,0,0.3,0,0.4c0,0,0,0.1,0,0.1c0,0.1,0,0.3-0.1,0.4c0,0,0,0,0,0.1
					c0,0.1-0.1,0.2-0.1,0.3c0,0,0,0.1,0,0.1c0,0.1-0.1,0.2-0.1,0.3c0,0,0,0.1-0.1,0.1c0,0,0,0,0,0c0,0.1-0.1,0.1-0.1,0.2
					c0,0.1-0.1,0.1-0.1,0.2c-0.1,0.1-0.1,0.2-0.2,0.3c0,0.1-0.1,0.1-0.1,0.2c0,0-0.1,0.1-0.1,0.1c-0.1,0.1-0.2,0.3-0.3,0.4
					c-0.1,0.1-0.1,0.1-0.2,0.2c0,0,0,0,0,0c-0.2,0.2-0.4,0.4-0.7,0.5v8.6c1.9,0.3,3.2,0.9,3.2,1.7c0,0.7-1.3,1.4-3.2,1.7v1.9
					l2.5,2.5c0.1,0.1,0.3,0.3,0.3,0.4c0.6,0.9,0.5,2.2-0.3,3l-2.5,2.5v1.6c1.9,0.3,3.2,0.9,3.2,1.7c0,1-2.5,1.9-5.7,1.9c0,0,0,0,0,0
					c0,0,0,0,0,0c-3.1,0-5.7-0.8-5.7-1.9c0-0.7,1.3-1.4,3.2-1.7v-1.6l-2.5-2.5c-0.9-0.9-0.9-2.5,0-3.4l2.5-2.5v-1.9
					c-1.9-0.3-3.2-0.9-3.2-1.7c0-0.7,1.2-1.3,2.9-1.6c0.1,0,0.2,0,0.3,0V289c-0.2-0.2-0.5-0.3-0.7-0.5c0,0,0,0,0,0
					c-0.2-0.2-0.4-0.4-0.5-0.6c0,0-0.1-0.1-0.1-0.1c0-0.1-0.1-0.1-0.1-0.2c-0.1-0.1-0.1-0.2-0.2-0.3c0-0.1-0.1-0.1-0.1-0.2
					c0-0.1-0.1-0.1-0.1-0.2c0,0,0-0.1-0.1-0.1c0-0.1-0.1-0.2-0.1-0.3c0,0,0-0.1,0-0.1c0-0.1-0.1-0.2-0.1-0.3c0,0,0,0,0-0.1
					c0-0.1,0-0.3-0.1-0.4c0,0,0-0.1,0-0.1c0-0.1,0-0.3,0-0.4c0-0.1,0-0.3,0-0.4c0,0,0-0.1,0-0.1c0-0.1,0-0.2,0-0.3c0,0,0-0.1,0-0.1
					c0,0,0,0,0-0.1c0-0.1,0.1-0.2,0.1-0.3c0,0,0-0.1,0-0.1c0-0.1,0.1-0.2,0.1-0.3c0,0,0-0.1,0.1-0.1c0-0.1,0.1-0.1,0.1-0.2
					c0,0,0,0,0,0c0-0.1,0.1-0.1,0.1-0.2c0.1-0.1,0.1-0.2,0.2-0.3c0-0.1,0.1-0.1,0.1-0.2c0,0,0.1-0.1,0.1-0.1
					c0.1-0.2,0.3-0.4,0.5-0.5c0,0,0,0,0.1-0.1c0,0,0,0,0,0c0.2-0.2,0.4-0.4,0.7-0.5v-8.6c-0.4-0.1-0.7-0.1-1-0.2h0
					c-1.3-0.3-2.2-0.9-2.2-1.5c0-0.2,0.1-0.3,0.2-0.5c0.4-0.4,1.3-0.8,2.4-1.1c0.2,0,0.4-0.1,0.6-0.1v-1.9l-2.5-2.5
					c-0.9-0.9-0.9-2.5,0-3.4l2.5-2.5v-1.6c-1.9-0.3-3.2-0.9-3.2-1.7c0-0.5,0.7-1,1.8-1.4h0C251.1,253.8,252.5,253.6,254.1,253.6
					C254,253.6,254,253.6,254.1,253.6C254,253.6,254,253.6,254.1,253.6z M251.5,273.2v-0.8c-0.4-0.1-0.7-0.1-1-0.2L251.5,273.2z
					 M251.5,273.2v-0.8c-0.4-0.1-0.7-0.1-1-0.2L251.5,273.2z M251.5,273.2v-0.8c-0.4-0.1-0.7-0.1-1-0.2L251.5,273.2z M251.5,273.2
					v-0.8c-0.4-0.1-0.7-0.1-1-0.2L251.5,273.2z M251.5,273.2v-0.8c-0.4-0.1-0.7-0.1-1-0.2L251.5,273.2z M251.5,273.2v-0.8
					c-0.4-0.1-0.7-0.1-1-0.2L251.5,273.2z M251.5,273.2v-0.8c-0.4-0.1-0.7-0.1-1-0.2L251.5,273.2z"/>
				<path class="st39" d="M256.5,297.6v-6.3l16.1,16.1v8.1c0,0.9-0.8,1.7-1.7,1.8l-11.6-11.6c-0.1-0.2-0.2-0.3-0.3-0.4l-2.5-2.5
					v-1.9c1.9-0.3,3.2-0.9,3.2-1.7C259.7,298.5,258.4,297.9,256.5,297.6z"/>
				<path class="st39" d="M235.4,270.2l14,14c0,0.1,0,0.2,0,0.3c0,0,0,0.1,0,0.1c0,0.1,0,0.3,0,0.4c0,0.1,0,0.3,0,0.4
					c0,0,0,0.1,0,0.1c0,0.1,0,0.3,0.1,0.4c0,0,0,0,0,0.1c0,0.1,0.1,0.2,0.1,0.3c0,0,0,0.1,0,0.1c0,0.1,0.1,0.2,0.1,0.3
					c0,0,0,0.1,0.1,0.1c0,0.1,0.1,0.1,0.1,0.2c0,0.1,0.1,0.1,0.1,0.2c0.1,0.1,0.1,0.2,0.2,0.3c0,0.1,0.1,0.1,0.1,0.2
					c0,0,0.1,0.1,0.1,0.1c0.2,0.2,0.3,0.4,0.5,0.6c0,0,0,0,0,0c0.2,0.2,0.4,0.4,0.7,0.5v8.6c-0.1,0-0.2,0-0.3,0l-15.9-15.9V270.2z"
					/>
				<path class="st39" d="M259,264.7c0.3-0.3,0.5-0.7,0.6-1l13,13v14.3l-16.1-16.1v-2.3c1.9-0.3,3.2-0.9,3.2-1.7
					c0-0.7-1.3-1.4-3.2-1.7v-1.9L259,264.7z"/>
				<path class="st39" d="M243.8,247.8l6.3,6.3c-1.1,0.3-1.8,0.8-1.8,1.4c0,0.7,1.3,1.4,3.2,1.7v1.6l-2.5,2.5
					c-0.9,0.9-0.9,2.5,0,3.4l2.5,2.5v1.9c-0.2,0-0.4,0.1-0.6,0.1l-15.4-15.4c0.3-0.6,0.9-1.1,1.6-1.1h2.8v1.2c0,0.9,0.7,1.6,1.6,1.6
					h0c0.9,0,1.6-0.7,1.6-1.6V249C243.2,248.5,243.4,248,243.8,247.8z"/>
				<path class="st39" d="M256.5,281v-2.8l16.1,16.1v9.1l-15.2-15.2c0.1-0.1,0.2-0.3,0.3-0.4c0,0,0.1-0.1,0.1-0.1
					c0-0.1,0.1-0.1,0.1-0.2c0.1-0.1,0.1-0.2,0.2-0.3c0-0.1,0.1-0.1,0.1-0.2c0-0.1,0.1-0.1,0.1-0.2c0,0,0,0,0,0c0,0,0-0.1,0.1-0.1
					c0-0.1,0.1-0.2,0.1-0.3c0,0,0-0.1,0-0.1c0-0.1,0.1-0.2,0.1-0.3c0,0,0,0,0-0.1c0-0.1,0-0.3,0.1-0.4c0,0,0-0.1,0-0.1
					c0-0.1,0-0.3,0-0.4c0-0.1,0-0.3,0-0.4c0,0,0-0.1,0-0.1c0-0.1,0-0.3-0.1-0.4c0,0,0,0,0-0.1c0-0.1-0.1-0.2-0.1-0.3
					c0,0,0-0.1,0-0.1c0-0.1-0.1-0.2-0.1-0.3c0,0,0-0.1-0.1-0.1c0-0.1-0.1-0.1-0.1-0.2c0-0.1-0.1-0.1-0.1-0.2
					c-0.1-0.1-0.1-0.2-0.2-0.3c0-0.1-0.1-0.1-0.1-0.2c0,0-0.1-0.1-0.1-0.1c-0.2-0.2-0.3-0.4-0.5-0.6c0,0,0,0,0,0
					C257,281.3,256.7,281.2,256.5,281z"/>
				<path class="st39" d="M235.4,257.1l15.1,15.1h0l1,1v7.8c-0.2,0.2-0.5,0.3-0.7,0.5c0,0,0,0,0,0c0,0,0,0-0.1,0.1l-15.4-15.4V257.1
					z"/>
				<path class="st39" d="M258.2,287.1c0-0.1,0.1-0.1,0.1-0.2l14.4,14.4v4.3l-16.1-16.1V289c0.2-0.2,0.5-0.3,0.7-0.5c0,0,0,0,0,0
					c0.1-0.1,0.1-0.1,0.2-0.2c0.1-0.1,0.2-0.3,0.3-0.4c0,0,0.1-0.1,0.1-0.1c0-0.1,0.1-0.1,0.1-0.2c0.1-0.1,0.1-0.2,0.2-0.3
					C258.1,287.2,258.2,287.2,258.2,287.1z"/>
				<path class="st39" d="M235.4,264.1l16.1,16.1v0.8c-0.2,0.2-0.5,0.3-0.7,0.5c0,0,0,0,0,0c0,0,0,0-0.1,0.1
					c-0.2,0.2-0.3,0.3-0.5,0.5c0,0-0.1,0.1-0.1,0.1c0,0.1-0.1,0.1-0.1,0.2c-0.1,0.1-0.1,0.2-0.2,0.3c0,0.1-0.1,0.1-0.1,0.2
					c0,0,0,0,0,0l-14.4-14.4V264.1z"/>
				<path class="st18" d="M237.2,252.7v64.6c-1,0-1.8-0.8-1.8-1.8v-61.1C235.4,253.5,236.2,252.7,237.2,252.7z"/>
				<path class="st18" d="M270.8,252.7v64.6c1,0,1.8-0.8,1.8-1.8v-61.1C272.6,253.5,271.8,252.7,270.8,252.7z"/>
			</g>
			<g>
				<path class="st14" d="M133.2,235.4h-14.7c-3.7,0-6.6-3-6.6-6.6v-81.5c0-1.9,1.2-3.7,2.9-4.5c2.8-1.3,5.6-2,8.4-1.9
					c2.5,0,4.9,0.6,7.3,1.9c0,0,0.1,0,0.1,0.1c0.2,0.1,0.4,0.2,0.6,0.4c1.2,0.9,2,2.4,2,3.9V235.4z"/>
				<path class="st20" d="M133.2,147c0-1.8-1-3.5-2.6-4.3c0.4,0.7,0.6,1.5,0.6,2.4v82.2c0,3.4-2.8,6.2-6.2,6.2h-8.5
					c-1.3,0-2.6-0.4-3.6-1.1c1.2,1.8,3.2,3,5.6,3h14.7V147z"/>
				<path class="st20" d="M124.3,302.7c-2.4,0-3.7-13.4-3-21.5c2.3-28.3,6.2-45.9-2-45.9h13.9c0,11.3,1.3,31.5-5.5,45.6
					c-4.7,9.9-2.8,16.9,0.4,21c0.2,0.3,0,0.7-0.4,0.7H124.3z"/>
				<path class="st11" d="M122.5,281.2c2.3-28.3,6.2-45.9-2-45.9h-1.3c8.2,0,4.2,17.6,2,45.9c-0.7,8.2,0.7,21.5,3,21.5h1.3
					C123.2,302.7,121.9,289.4,122.5,281.2z"/>
				<g>
					<path class="st24" d="M131.2,143.1c-0.2-0.1-0.4-0.3-0.6-0.4C130.8,142.8,131,143,131.2,143.1L131.2,143.1z"/>
					<path class="st24" d="M125.1,233.4h-1.9v-92.6c2.5,0,4.9,0.6,7.3,1.9c0,0,0.1,0,0.1,0.1c0.4,0.7,0.6,1.5,0.6,2.4v82.2
						C131.2,230.6,128.4,233.4,125.1,233.4z"/>
				</g>
				<path class="st6" d="M-18.9,280c0-0.1,0-0.2,0-0.2c0.9-6.5,7-10.9,13.5-10c48.2,6.6,87.7,5.2,135.9-4.4c3.6-0.7,7.1,1.4,8,4.9
					c0,0,0,0.1,0,0.1c0.9,3.5-1.3,7.1-5,8.1c-48.9,13.2-90.3,18.2-141.4,14.5C-14.7,292.4-19.7,286.4-18.9,280z"/>
				<path class="st7" d="M133.6,278.4c1.8-0.5,3.2-1.5,4.1-2.9c-0.6,0.4-1.3,0.7-2.1,1c-48.9,13.2-90.3,18.2-141.4,14.5
					c-6.9-0.5-12-6.5-11.1-12.9c0-0.1,0-0.2,0-0.2c0.3-2.1,1.1-4,2.4-5.6c-2.3,1.8-3.9,4.4-4.3,7.5c0,0.1,0,0.2,0,0.2
					c-0.9,6.5,4.1,12.4,11.1,12.9C43.3,296.5,84.7,291.6,133.6,278.4z"/>
				<path class="st20" d="M127.6,274.7c-1.1,0-2-0.9-2-2c0-1.1,0.9-2,2-2s2,0.9,2,2C129.6,273.8,128.7,274.7,127.6,274.7z"/>
			</g>
			<g>
				<path class="st14" d="M304.6,480.4v-14.7c0-3.7-3-6.6-6.6-6.6h-81.5c-1.9,0-3.7,1.2-4.5,2.9c-1.3,2.8-2,5.6-1.9,8.4
					c0,2.5,0.6,4.9,1.9,7.3c0,0,0,0.1,0.1,0.1c0.1,0.2,0.2,0.4,0.4,0.6c0.9,1.2,2.4,2,3.9,2H304.6z"/>
				<path class="st20" d="M216.2,480.4c-1.8,0-3.5-1-4.3-2.6c0.7,0.4,1.5,0.6,2.4,0.6h82.2c3.4,0,6.2-2.8,6.2-6.2v-8.5
					c0-1.3-0.4-2.6-1.1-3.6c1.8,1.2,3,3.2,3,5.6v14.7H216.2z"/>
				<path class="st20" d="M371.9,471.5c0-2.4-13.4-3.7-21.5-3c-28.3,2.3-45.9,6.2-45.9-2v13.9c11.3,0,31.5,1.3,45.6-5.5
					c9.9-4.7,16.9-2.8,21,0.4c0.3,0.2,0.7,0,0.7-0.4V471.5z"/>
				<path class="st11" d="M350.4,469.7c-28.3,2.3-45.9,6.2-45.9-2v-1.3c0,8.2,17.6,4.2,45.9,2c8.2-0.7,21.5,0.7,21.5,3v1.3
					C371.9,470.4,358.6,469.1,350.4,469.7z"/>
				<g>
					<path class="st24" d="M212.3,478.4c-0.1-0.2-0.3-0.4-0.4-0.6C212,478,212.2,478.2,212.3,478.4L212.3,478.4z"/>
					<path class="st24" d="M302.6,472.3v-1.9H210c0,2.5,0.6,4.9,1.9,7.3c0,0,0,0.1,0.1,0.1c0.7,0.4,1.5,0.6,2.4,0.6h82.2
						C299.8,478.4,302.6,475.7,302.6,472.3z"/>
				</g>
				<path class="st6" d="M349.2,328.4c-0.1,0-0.2,0-0.2,0c-6.5,0.9-10.9,7-10,13.5c6.6,48.2,5.2,87.7-4.4,135.9
					c-0.7,3.6,1.4,7.1,4.9,8c0,0,0.1,0,0.1,0c3.5,0.9,7.1-1.3,8.1-5c13.2-48.9,18.2-90.3,14.5-141.4
					C361.6,332.5,355.6,327.5,349.2,328.4z"/>
				<path class="st7" d="M347.6,480.8c-0.5,1.8-1.5,3.2-2.9,4.1c0.4-0.6,0.7-1.3,1-2.1c13.2-48.9,18.2-90.3,14.5-141.4
					c-0.5-6.9-6.5-12-12.9-11.1c-0.1,0-0.2,0-0.2,0c-2.1,0.3-4,1.1-5.6,2.4c1.8-2.3,4.4-3.9,7.5-4.3c0.1,0,0.2,0,0.2,0
					c6.5-0.9,12.4,4.1,12.9,11.1C365.7,390.5,360.8,431.9,347.6,480.8z"/>
				<path class="st20" d="M343.9,474.8c0-1.1-0.9-2-2-2c-1.1,0-2,0.9-2,2c0,1.1,0.9,2,2,2C343,476.8,343.9,475.9,343.9,474.8z"/>
			</g>
			<g>
				<path class="st38" d="M68.3,244.4c0,0.1,0,0.2-0.1,0.3c-0.6,2.6-3,4.5-5.7,4.5H33.6c-2.7,0-5.1-1.9-5.7-4.5c0-0.1,0-0.2-0.1-0.3
					c-4-21.6,4.2-29.3,4-37.3c0-1.4-1-3.4-2-4.4c-0.9-0.9-1-2.1-0.3-2.9c0.4-0.5,0.4-1.2,0-1.6c-2.6-2.7-2-7.4,0.7-9.7
					c0.4-0.4,1-0.6,1.6-0.6h32.6c0.6,0,1.2,0.2,1.6,0.6c2.6,2.3,3.3,7,0.7,9.7c-0.4,0.4-0.4,1.1,0,1.6c0.7,0.8,0.6,2-0.3,2.9
					c-1,1-2,2.9-2,4.4C64.2,215.1,72.3,222.8,68.3,244.4z"/>
				<path class="st40" d="M64.9,244.4c0,0.1,0,0.2,0,0.3c-0.5,2.6-2.5,4.5-4.7,4.5h-24c-2.3,0-4.2-1.9-4.7-4.5c0-0.1,0-0.2,0-0.3
					c-3.3-21.6,3.5-29.3,3.3-37.3c0-1.4-0.8-3.4-1.7-4.4c-0.7-0.9-0.8-2.1-0.3-2.9c0.3-0.5,0.4-1.2,0-1.6c-2.2-2.7-1.6-7.4,0.5-9.7
					c0.4-0.4,0.8-0.6,1.3-0.6h27c0.5,0,1,0.2,1.3,0.6c2.2,2.3,2.7,7,0.5,9.7c-0.4,0.4-0.3,1.1,0,1.6c0.6,0.8,0.5,2-0.3,2.9
					c-0.8,1-1.6,2.9-1.7,4.4C61.4,215.1,68.2,222.8,64.9,244.4z"/>
				<path class="st28" d="M60,244.4c0,0.1,0,0.2,0,0.3c-0.4,2.6-1.7,4.5-3.3,4.5h-17c-1.6,0-3-1.9-3.3-4.5c0-0.1,0-0.2,0-0.3
					c-2.4-21.6,2.4-29.3,2.3-37.3c0-1.4-0.6-3.4-1.2-4.4c-0.5-0.9-0.6-2.1-0.2-2.9c0.2-0.5,0.3-1.2,0-1.6c-1.5-2.7-1.2-7.4,0.4-9.7
					c0.3-0.4,0.6-0.6,0.9-0.6h19.1c0.3,0,0.7,0.2,0.9,0.6c1.5,2.3,1.9,7,0.4,9.7c-0.3,0.4-0.2,1.1,0,1.6c0.4,0.8,0.3,2-0.2,2.9
					c-0.6,1-1.2,2.9-1.2,4.4C57.5,215.1,62.3,222.8,60,244.4z"/>
				<path class="st18" d="M66.7,199.8H29.6c0.4-0.5,0.4-1.2,0-1.6h37.1C66.2,198.7,66.3,199.4,66.7,199.8z"/>
				<path class="st36" d="M82.7,123.9c-7.6,20.3-23,60.8-23,60.8H36.5c0,0-15.3-40.5-23-60.8c1-0.4,2-0.7,3-1.1
					c0.8-0.3,1.6-0.5,2.4-0.8c0.3-0.1,0.5-0.2,0.8-0.2c0.5-0.2,1.1-0.3,1.6-0.5c0.8-0.2,1.5-0.4,2.3-0.6l0.2,0l2.3-0.5
					c1.2-0.3,2.5-0.6,3.8-0.8c0.3,0,0.5-0.1,0.8-0.2c1.9-0.3,3.8-0.6,5.7-0.9c0.9-0.1,1.9-0.2,2.8-0.3c0.3,0,0.6,0,0.8-0.1
					c0.9-0.1,1.7-0.1,2.6-0.2c1.1,0,2.1-0.1,3.2-0.1h0.8c1.2,0,2.4,0,3.5,0c0.7,0,1.4,0,2.1,0.1c0.9,0,1.8,0.1,2.6,0.2
					c0.3,0,0.6,0,0.8,0.1c1,0.1,2,0.2,3,0.3c1.4,0.2,2.8,0.3,4.2,0.6c2,0.3,4,0.7,5.9,1.1c0.3,0,0.5,0.1,0.8,0.2
					c0.9,0.2,1.9,0.4,2.8,0.7c1.1,0.3,2.2,0.6,3.2,0.9c0.5,0.2,1,0.3,1.5,0.5c0.3,0.1,0.5,0.2,0.8,0.3
					C79.6,122.8,81.2,123.4,82.7,123.9z"/>
				<g>
					<path class="st41" d="M42.2,183.9l-0.6,0.2l-1.4,0.5l-0.4,0.1l-0.1,0L39,185l-1.5,0.5l-0.3-0.8l-20.6-61.9
						c0.8-0.3,1.6-0.5,2.4-0.8c0.3-0.1,0.5-0.2,0.8-0.2c0.5-0.2,1.1-0.3,1.6-0.5L32.2,154l0,0l9.2,27.6L42.2,183.9z"/>
					<path class="st42" d="M23.7,120.7l8.1,31.8l8.2,32.2v0l0,0.1c0.1,0.6,0.6,1,1.2,1c0.1,0,0.2,0,0.3,0c0.4-0.1,0.7-0.4,0.9-0.8
						c0-0.1,0-0.1,0.1-0.2c0-0.2,0-0.4,0-0.6l-1-4.1l-15.2-59.9L23.7,120.7z"/>
					<path class="st43" d="M48,184.5l-0.9,0.1l-0.4,0l-0.8,0.1l-0.7,0.1l-0.3,0l-0.6,0l-0.4,0l-0.8,0.1l-0.7,0.1l-0.7,0.1l0-0.3
						l0-0.6l-0.2-2.5l-0.1-1v0l-0.5-6.9l-0.6-7.1l-3.9-48.3c0.9-0.1,1.9-0.2,2.8-0.3c0.3,0,0.6-0.1,0.8-0.1c0.9-0.1,1.7-0.1,2.6-0.2
						l3.2,39.6l0.8,10.5l0.7,9.2v0L48,184.5z"/>
					<path class="st42" d="M63,118.8l-9.2,64.1l-0.3,1.8l0,0.3v0l-2.1-0.3l-1.2-0.2l-0.8-0.1l0,0l0-0.3l0,0l2-14.3l0,0l7.4-51.6
						C60.2,118.4,61.6,118.5,63,118.8z"/>
					<path class="st42" d="M75.8,121.6l-11.3,41.7l-5.8,21.4l0,0.1c-0.2,0.6-0.6,1-1.2,1.2c-0.1,0-0.3,0-0.4,0c-0.1,0-0.3,0-0.4,0
						c-0.6-0.2-1.1-0.6-1.2-1.2c-0.1-0.2-0.1-0.5,0-0.7l17.2-63.2C73.6,121,74.7,121.3,75.8,121.6z"/>
					<path class="st42" d="M52.3,117.7l-3.2,67l0,0.1c0,0.6-0.5,1-1,1h-0.1c-0.6,0-1-0.5-1-1.1v0l0-0.1l0.4-7.4v0l2.8-59.5
						C50.9,117.7,51.6,117.7,52.3,117.7z"/>
					<path class="st42" d="M69.8,120l-15.5,64.7l0,0.1c0,0.2-0.2,0.3-0.4,0.3c0,0-0.1,0-0.1,0c-0.1,0-0.2-0.1-0.2-0.1
						c-0.1-0.1-0.1-0.2-0.1-0.3c0,0,0-0.1,0-0.1l0.4-1.7v0l15.1-63C69.2,119.9,69.5,120,69.8,120z"/>
					<path class="st41" d="M43.9,184.7C43.9,184.7,43.9,184.8,43.9,184.7c0,0.2-0.2,0.4-0.3,0.4c0,0-0.1,0-0.1,0
						c-0.2,0-0.3-0.1-0.4-0.3c0,0,0,0,0-0.1l0-0.1l-2.2-11l-10.9-54.4c0.3-0.1,0.5-0.1,0.8-0.2l9.5,47.5L43.9,184.7
						C43.9,184.6,43.9,184.7,43.9,184.7z"/>
					<path class="st41" d="M55.8,117.9l-4.4,51.9l-1.2,14.7l0,0.2l0,0c0,0.2-0.2,0.4-0.4,0.4h0c-0.2,0-0.4-0.2-0.4-0.4v0l0-0.3
						l0-0.3l5.6-66.2C55.3,117.9,55.5,117.9,55.8,117.9z"/>
					<path class="st43" d="M78.1,122.3l-19.4,62.4l-0.5,1.7c-0.1,0.2-0.2,0.3-0.4,0.3c0,0-0.1,0-0.1,0c-0.2-0.1-0.3-0.3-0.3-0.5
						l0.2-0.8l0.2-0.7l0.3-0.9l19.2-61.7C77.6,122.1,77.8,122.2,78.1,122.3z"/>
					<path class="st43" d="M39.9,186.7c0,0-0.1,0-0.1,0c-0.2,0-0.3-0.1-0.4-0.3L39,185l-0.1-0.3l-19.9-62.6c0.3-0.1,0.5-0.2,0.8-0.2
						l20,62.9l0,0l0.5,1.5C40.3,186.4,40.2,186.7,39.9,186.7z"/>
					<path class="st43" d="M46.7,117.6v67.9c0,0.2-0.2,0.4-0.4,0.4c-0.2,0-0.4-0.2-0.4-0.4v-67.9C46.1,117.6,46.4,117.6,46.7,117.6z
						"/>
					<path class="st40" d="M45.3,186.3c0,0.2-0.2,0.4-0.4,0.4c0,0,0,0,0,0c-0.2,0-0.4-0.2-0.4-0.4l-0.1-1.6l0,0L39.2,118
						c0.3,0,0.6-0.1,0.8-0.1l5.1,66.7v0L45.3,186.3z"/>
				</g>
				<path class="st18" d="M68.4,244.6c-0.6,2.6-3,4.5-5.7,4.5H33.8c-2.7,0-5.1-1.9-5.7-4.5H68.4z"/>
				<path class="st6" d="M60.1,184.7h-24c-1.8,0-3.2,1.4-3.2,3.2v0h30.4v0C63.3,186.1,61.9,184.7,60.1,184.7z"/>
			</g>
			<g>
				<path class="st18" d="M321.3,359.9v35.9c0,0.2,0,0.5,0,0.7c-0.3,3.7-3.4,6.5-7.2,6.5h-70.6c-3.7,0-6.8-2.9-7.1-6.5
					c0-0.2,0-0.5,0-0.7v-35.9H321.3z"/>
				<path class="st14" d="M298.9,359.9v35.9c0,4-2.4,7.2-5.3,7.2h17.1c3.8,0,6.9-3.2,6.9-7.2v-35.9H298.9z"/>
				<path class="st44" d="M254.4,395.8v-35.9h-8.2v35.9c0,4,2.9,7.2,6.4,7.2h7.5C257,403,254.4,399.8,254.4,395.8z"/>
				<rect x="243.5" y="403" class="st42" width="70" height="2.1"/>
				<rect x="237.1" y="358.7" class="st13" width="82.2" height="1.2"/>
				<path class="st32" d="M312.7,337.8h-67.7c-4.7,0-8.6,3.8-8.6,8.6v12.2h84.9v-12.2C321.3,341.7,317.4,337.8,312.7,337.8z"/>
				<path class="st45" d="M309.4,337.8h-16.8c3.5,0,6.3,3.8,6.3,8.6v12.2h18.7v-12.2C317.6,341.7,313.9,337.8,309.4,337.8z"/>
				<path class="st46" d="M261.2,337.8h-7.4c-4.2,0-7.6,3.8-7.6,8.6v12.2h8.2v-12.2C254.4,341.7,257.5,337.8,261.2,337.8z"/>
				<path class="st47" d="M293.5,345.3h-49.9c-1.1,0-2-0.9-2-2v0c0-1.1,0.9-2,2-2h49.9c1.1,0,2,0.9,2,2v0
					C295.4,344.4,294.6,345.3,293.5,345.3z"/>
				<path class="st18" d="M321.2,396.5c-0.3,3.7-3.4,6.5-7.2,6.5h-0.5v2.1h-70V403c-3.7,0-6.8-2.9-7.1-6.5H321.2z"/>
			</g>
			<path class="st5" d="M342,93.8c-0.9,0-1.6-0.7-1.6-1.6c0-0.9,0.7-1.6,1.6-1.6c0.4,0,0.8,0.2,1.1,0.4h29.1c1.1,0,2.2-0.2,3.3-0.6
				l2-0.7c1.3-0.4,2.7-0.7,4.1-0.7c1.4,0,2.8,0.2,4.1,0.7c1.1,0.4,2.3,0.6,3.4,0.6c1.1,0,2.2-0.2,3.3-0.5c1.3-0.5,2.7-0.7,4.2-0.7
				c1.4,0,2.7,0.2,4,0.7l0.2,0.1c1.1,0.4,2.2,0.6,3.3,0.6c1,0,2-0.2,3-0.5l2.5-0.8c1.2-0.4,2.5-0.6,3.7-0.6h42c2.8,0,5.1-2.3,5.1-5
				v-0.1c0-2.8-2.3-5-5.1-5h-41.9c-1.3,0-2.6-0.2-3.8-0.6l-2.5-0.8c-1-0.3-2-0.5-3.1-0.5c-1.1,0-2.2,0.2-3.3,0.6l-0.2,0.1
				c-1.3,0.4-2.7,0.7-4.1,0.7c-1.4,0-2.8-0.2-4.1-0.7c-1.1-0.4-2.3-0.6-3.4-0.6c-1.1,0-2.2,0.2-3.3,0.5c-1.3,0.5-2.7,0.7-4.2,0.7
				c-1.4,0-2.7-0.2-4-0.7l-2-0.7c-1.1-0.4-2.2-0.6-3.3-0.6h-29.1c-0.3,0.3-0.7,0.4-1.1,0.4c-0.9,0-1.6-0.7-1.6-1.6
				c0-0.9,0.7-1.6,1.6-1.6c0.4,0,0.8,0.2,1.1,0.4h29.1c1.4,0,2.8,0.2,4.1,0.7l2,0.7c1.1,0.4,2.2,0.5,3.3,0.5c1.1,0,2.2-0.2,3.3-0.5
				c1.3-0.5,2.7-0.7,4.2-0.7c1.4,0,2.7,0.2,4,0.7c1.1,0.4,2.3,0.6,3.4,0.6c1.1,0,2.2-0.2,3.3-0.5l0.2-0.1c1.3-0.5,2.7-0.7,4.1-0.7
				c1.3,0,2.6,0.2,3.8,0.6l2.5,0.8c1,0.3,2,0.5,3.1,0.5h41.9c4.1,0,7.4,3.3,7.4,7.4v0.1c0,4.1-3.3,7.4-7.4,7.4h-42
				c-1,0-2.1,0.2-3,0.5l-2.5,0.8c-1.2,0.4-2.5,0.6-3.7,0.6c-1.4,0-2.7-0.2-4.1-0.7l-0.2-0.1c-1.1-0.4-2.2-0.5-3.3-0.5
				c-1.1,0-2.2,0.2-3.3,0.5c-1.3,0.5-2.7,0.7-4.2,0.7c-1.4,0-2.7-0.2-4-0.7c-1.1-0.4-2.3-0.6-3.4-0.6c-1.1,0-2.2,0.2-3.3,0.5l-2,0.7
				c-1.3,0.4-2.7,0.7-4.1,0.7h-29.1C342.8,93.6,342.5,93.8,342,93.8z"/>
			<g>
				<path class="st5" d="M395.2,314.9c-0.2,0-0.4,0-0.6,0c-37.7-5.3-58.2-4.1-92.3-2.3l-2.8,0.2l-0.1-1.4l2.8-0.2
					c34.1-1.9,54.7-3,92.5,2.3c0.7,0.1,1.3-0.1,1.9-0.5c0.6-0.5,1-1.4,1-2.3c0-0.6-0.3-1.2-0.9-1.7c-0.7-0.6-1.6-0.9-2.4-0.8
					c-13.3,1.8-24.1,1.4-36.3-1.3c-1.3-0.3-2.4,0.4-3.5,1.1c-0.9,0.5-1.7,1.1-2.6,1.1c-1.3,0-2.3-0.5-3.4-0.9
					c-1-0.4-1.9-0.8-2.8-0.8c-0.9,0-1.6,0.3-2.5,0.7c-1,0.4-2.2,0.9-3.7,0.9c-1.5,0-2.7-0.5-3.6-1c-0.9-0.4-1.6-0.8-2.6-0.8
					c-1,0-1.7,0.3-2.5,0.7c-0.9,0.4-1.9,0.9-3.5,1c-1.6,0.1-3.9,0.4-6.1,0.7c-2.8,0.4-5.5,0.7-6.7,0.7c-2.3,0-10.1-3.9-11.9-5
					l0.7-1.2c1.9,1.2,9.4,4.8,11.2,4.8c1.1,0,3.9-0.4,6.5-0.7c2.2-0.3,4.5-0.6,6.1-0.7c1.4-0.1,2.2-0.5,3-0.9
					c0.9-0.4,1.8-0.8,3.1-0.8c1.3,0,2.2,0.5,3.2,0.9c0.9,0.4,1.8,0.8,3,0.8c1.3,0,2.2-0.4,3.2-0.8c0.9-0.4,1.9-0.8,3-0.8
					c1.2,0,2.3,0.5,3.3,0.9c1,0.4,1.9,0.8,2.9,0.8c0.5,0,1.2-0.4,1.9-0.8c1.2-0.7,2.7-1.7,4.5-1.2c12,2.6,22.7,3,35.8,1.3
					c1.2-0.2,2.5,0.2,3.5,1.1c0.9,0.8,1.4,1.8,1.4,2.8c0,1.4-0.5,2.6-1.5,3.4C396.9,314.6,396.1,314.9,395.2,314.9z"/>
				<path class="st5" d="M304.4,311.7c0,0-3.7,2-4.6,2.1c-0.9,0.1-1.7-0.6-1.8-1.5c-0.1-0.9,0.6-1.7,1.5-1.8
					C300.4,310.5,304.4,311.7,304.4,311.7z"/>
				<path class="st5" d="M306.7,306.6c0,0-4.2-0.3-5.1-0.8c-0.8-0.4-1.1-1.4-0.7-2.2c0.4-0.8,1.4-1.1,2.2-0.7
					C304,303.3,306.7,306.6,306.7,306.6z"/>
			</g>
			<g>
				<path class="st5" d="M40.6,53.5c0-0.2,0-0.4,0-0.6c5.3-37.7,4.1-58.2,2.3-92.3l-0.2-2.8l1.4-0.1l0.2,2.8
					c1.9,34.1,3,54.7-2.3,92.5c-0.1,0.7,0.1,1.3,0.5,1.9c0.5,0.6,1.4,1,2.3,1c0.6,0,1.2-0.3,1.7-0.9c0.6-0.7,0.9-1.6,0.8-2.4
					c-1.8-13.3-1.4-24.1,1.3-36.3c0.3-1.3-0.4-2.4-1.1-3.5c-0.5-0.9-1.1-1.7-1.1-2.6c0-1.3,0.5-2.3,0.9-3.4c0.4-1,0.8-1.9,0.8-2.8
					c0-0.9-0.3-1.6-0.7-2.5c-0.4-1-0.9-2.2-0.9-3.7c0-1.5,0.5-2.7,1-3.6c0.4-0.9,0.8-1.6,0.8-2.6c0-1-0.3-1.7-0.7-2.5
					c-0.4-0.9-0.9-1.9-1-3.5c-0.1-1.6-0.4-3.9-0.7-6.1c-0.4-2.8-0.7-5.5-0.7-6.7c0-2.3,3.9-10.1,5-11.9l1.2,0.7
					c-1.2,1.9-4.8,9.4-4.8,11.2c0,1.1,0.4,3.9,0.7,6.5c0.3,2.2,0.6,4.5,0.7,6.1c0.1,1.4,0.5,2.2,0.9,3c0.4,0.9,0.8,1.8,0.8,3.1
					c0,1.3-0.5,2.2-0.9,3.2c-0.4,0.9-0.8,1.8-0.8,3c0,1.3,0.4,2.2,0.8,3.2c0.4,0.9,0.8,1.9,0.8,3c0,1.2-0.5,2.3-0.9,3.3
					c-0.4,1-0.8,1.9-0.8,2.9c0,0.5,0.4,1.2,0.8,1.9c0.7,1.2,1.7,2.7,1.2,4.5c-2.6,12-3,22.7-1.3,35.8c0.2,1.2-0.2,2.5-1.1,3.5
					c-0.8,0.9-1.8,1.4-2.8,1.4c-1.4,0-2.6-0.5-3.4-1.5C40.9,55.2,40.6,54.4,40.6,53.5z"/>
				<path class="st5" d="M43.8-37.4c0,0-2-3.7-2.1-4.6c-0.1-0.9,0.6-1.7,1.5-1.8c0.9-0.1,1.7,0.6,1.8,1.5
					C45.1-41.4,43.8-37.4,43.8-37.4z"/>
				<path class="st5" d="M48.9-35c0,0,0.3-4.2,0.8-5.1c0.4-0.8,1.4-1.1,2.2-0.7c0.8,0.4,1.1,1.4,0.7,2.2C52.2-37.7,48.9-35,48.9-35z
					"/>
			</g>
			<g>
				<rect x="446.3" y="237.5" class="st33" width="25.6" height="123.6"/>
				<g>
					<polygon class="st48" points="471.9,244 446.3,265 446.3,252.5 471.9,231.6 					"/>
					<polygon class="st11" points="471.9,269.6 446.3,290.6 446.3,278.1 471.9,257.1 					"/>
					<polygon class="st48" points="471.9,295.2 446.3,316.1 446.3,303.7 471.9,282.7 					"/>
					<polygon class="st11" points="471.9,320.8 446.3,341.7 446.3,329.3 471.9,308.3 					"/>
					<polygon class="st48" points="471.9,346.4 446.3,367.3 446.3,354.9 471.9,333.9 					"/>
				</g>
				<g>
					<rect x="445.5" y="233.2" class="st24" width="27.2" height="4.2"/>
					<rect x="449.6" y="233.2" class="st14" width="7.9" height="4.2"/>
					<rect x="457.5" y="233.2" class="st11" width="3" height="4.2"/>
					<rect x="464.5" y="233.2" class="st20" width="5" height="4.2"/>
					<rect x="467.3" y="233.2" class="st13" width="1.3" height="4.2"/>
					<path class="st24" d="M474,233.2h-29.8c-1,0-1.8-0.8-1.8-1.8V230c0-1,0.8-1.8,1.8-1.8H474c1,0,1.8,0.8,1.8,1.8v1.4
						C475.8,232.4,475,233.2,474,233.2z"/>
					<rect x="447.4" y="228.2" class="st14" width="9.8" height="5"/>
					<rect x="457.2" y="228.2" class="st11" width="3.7" height="5"/>
					<rect x="465.8" y="228.2" class="st20" width="6.1" height="5"/>
					<rect x="469.2" y="228.2" class="st13" width="1.6" height="5"/>
					<path class="st24" d="M459.2,212.9h-0.3c-7.4,0-13.5,6-13.5,13.5v1.8h27.2v-1.8C472.7,218.9,466.6,212.9,459.2,212.9z"/>
					<path class="st11" d="M459.2,212.9L459.2,212.9c4,0,7.3,6,7.3,13.5v1.8h6.2v-1.8C472.7,218.9,466.6,212.9,459.2,212.9z"/>
					<rect x="445.5" y="233.2" class="st18" width="27.2" height="1.8"/>
					<path class="st14" d="M457.5,218.5c0,1.9-1.5,3.5-3.5,3.5c-1.9,0-3.5-1.5-3.5-3.5s1.5-3.5,3.5-3.5
						C456,215.1,457.5,216.6,457.5,218.5z"/>
				</g>
				<g>
					<rect x="445.5" y="361.1" class="st24" width="27.2" height="4.2"/>
					<rect x="449.6" y="361.1" class="st14" width="7.9" height="4.2"/>
					<rect x="457.5" y="361.1" class="st11" width="3" height="4.2"/>
					<rect x="464.5" y="361.1" class="st20" width="5" height="4.2"/>
					<rect x="467.3" y="361.1" class="st13" width="1.3" height="4.2"/>
					<path class="st24" d="M474,365.3h-29.8c-1,0-1.8,0.8-1.8,1.8v1.4c0,1,0.8,1.8,1.8,1.8H474c1,0,1.8-0.8,1.8-1.8v-1.4
						C475.8,366.2,475,365.3,474,365.3z"/>
					<rect x="447.4" y="365.3" class="st14" width="9.8" height="5"/>
					<rect x="457.2" y="365.3" class="st11" width="3.7" height="5"/>
					<rect x="465.8" y="365.3" class="st20" width="6.1" height="5"/>
					<rect x="469.2" y="365.3" class="st13" width="1.6" height="5"/>
					<path class="st24" d="M459.2,385.6h-0.3c-7.4,0-13.5-6-13.5-13.5v-1.8h27.2v1.8C472.7,379.6,466.6,385.6,459.2,385.6z"/>
					<path class="st11" d="M459.2,385.6L459.2,385.6c4,0,7.3-6,7.3-13.5v-1.8h6.2v1.8C472.7,379.6,466.6,385.6,459.2,385.6z"/>
					<rect x="445.5" y="363.6" class="st18" width="27.2" height="1.8"/>
					<path class="st14" d="M457.5,380c0-1.9-1.5-3.5-3.5-3.5c-1.9,0-3.5,1.5-3.5,3.5c0,1.9,1.5,3.5,3.5,3.5
						C456,383.5,457.5,382,457.5,380z"/>
				</g>
				<rect x="459" y="237.5" class="st18" width="12.8" height="123.6"/>
			</g>
			<g>
				<g>
					<rect x="405" y="379.7" class="st20" width="5.3" height="4.6"/>
					<rect x="406.3" y="384.3" class="st24" width="2.8" height="122"/>
					<rect x="406.8" y="384.3" class="st12" width="1.5" height="122"/>
				</g>
				<rect x="396.4" y="377.1" class="st14" width="23" height="2.6"/>
				<path class="st49" d="M434.1,504.2c0,0.2,0,0.4,0,0.6c-0.1,2.6-2.3,4.8-5,4.8h-42.7c-2.7,0-4.9-2.1-5-4.8c0-0.2,0-0.4,0-0.6
					l3.8-64.6l3.4-57.4c0.1-1.4,1.2-2.5,2.6-2.5h33.2c1.4,0,2.6,1.1,2.6,2.5l3.4,57.4L434.1,504.2z"/>
				<path class="st50" d="M429,509.6h-42.7c-2.9,0-5.2-2.4-5-5.4l3.8-64.6h45.2l3.8,64.6C434.2,507.1,431.9,509.6,429,509.6z"/>
				<g>
					<path class="st51" d="M391.2,504.2l5.8-122.1c0.1-1.4,1-2.5,2.1-2.5h-3.7c-1.3,0-2.3,1.1-2.4,2.5l-6.4,122.1
						c-0.2,2.9,1.9,5.4,4.5,5.4h4.2C392.9,509.6,391.1,507.1,391.2,504.2z"/>
				</g>
				<g>
					<path class="st52" d="M420.7,362v15.2h-26V362c0-1.1,0.9-2,2-2h22C419.8,360,420.7,360.9,420.7,362z"/>
					<path class="st19" d="M420.7,362v15.2h-15.3V362c0-1.1,0.6-2,1.3-2h12C419.8,360,420.7,360.9,420.7,362z"/>
					<path class="st3" d="M417,360h-1.9c0.9,0,1.7,0.9,1.7,2v15.2h2.1V362C418.9,360.9,418.1,360,417,360z"/>
					<path class="st19" d="M415.1,351.9h-15.2c-1,0-1.7,0.8-1.7,1.7v6.4h18.7v-6.4C416.9,352.7,416.1,351.9,415.1,351.9z"/>
					<path class="st38" d="M414.4,351.9h-13.7c-0.9,0-1.6,0.8-1.6,1.7v6.4h16.8v-6.4C415.9,352.7,415.2,351.9,414.4,351.9z"/>
					<path class="st19" d="M414.5,334.6v17.3h-13.7v-17.3c0-0.5,0.4-0.8,0.9-0.7c0,0,0,0,0,0c3.5,0.7,6.9,0.8,10.3,0.3
						c0.5-0.1,1.1-0.2,1.6-0.3C414.1,333.8,414.5,334.2,414.5,334.6z"/>
					<path class="st38" d="M412,334.7v17.2h-10.3v-16.5c0-0.5,0.5-0.9,1-0.8C405.8,335.1,409,335.1,412,334.7z"/>
					<path class="st14" d="M410.2,338.9c0,1.3-1.1,2.4-2.4,2.4s-2.4-1.1-2.4-2.4c0-1.3,1.1-2.4,2.4-2.4S410.2,337.5,410.2,338.9z"/>
					<path class="st13" d="M408.5,338.9c0,0.4-0.3,0.7-0.7,0.7c-0.4,0-0.7-0.3-0.7-0.7c0-0.4,0.3-0.7,0.7-0.7
						C408.1,338.2,408.5,338.5,408.5,338.9z"/>
					<path class="st34" d="M414.4,330.9h-13.7c-1.3,0-2.4,1.1-2.4,2.4V360h18.6v-26.7C416.8,331.9,415.7,330.9,414.4,330.9z"/>
					<path class="st53" d="M410.7,354.1h-9.9c-0.4,0-0.8-0.3-0.8-0.8v0c0-0.4,0.3-0.8,0.8-0.8h9.9c0.4,0,0.8,0.3,0.8,0.8v0
						C411.5,353.7,411.1,354.1,410.7,354.1z"/>
					<path class="st54" d="M409.4,362.6h-12.9c-0.6,0-1-0.5-1-1v0c0-0.6,0.5-1,1-1h12.9c0.6,0,1,0.5,1,1v0
						C410.4,362.2,410,362.6,409.4,362.6z"/>
				</g>
				<g>
					<path class="st49" d="M383,504.2l3.5-64.6l3.1-57.4c0.1-1.4,1.2-2.5,2.5-2.5h-1.1c-1.4,0-2.5,1.1-2.6,2.5l-3.4,57.4l-3.8,64.6
						c-0.2,2.9,2.1,5.4,5,5.4h1.4C385,509.6,382.9,507.1,383,504.2z"/>
					<path class="st49" d="M434.1,504.2l-3.8-64.6l-3.4-57.4c-0.1-1.4-1.2-2.5-2.6-2.5h-1.1c1.3,0,2.4,1.1,2.5,2.5l3.1,57.4
						l3.5,64.6c0.2,2.9-2,5.4-4.7,5.4h1.4C431.9,509.6,434.2,507.1,434.1,504.2z"/>
				</g>
				<g>
					<path class="st18" d="M434.1,504.8c-0.1,2.6-2.3,4.8-5,4.8h-42.7c-2.7,0-4.9-2.1-5-4.8H434.1z"/>
				</g>
			</g>
		</g>
		<g style="clip-path:url(#SVGID_00000027563019896917636440000007859918443567473565_);">
			<g>
				<path class="st8" d="M8.5,16.6c-7.2-3.4-15.7-5.2-23.8-5.2c-25.9,0-45.8,9.8-66.8,9.8h-40.4c-1.7,0-3,1.4-3,3v33
					c0,1.7,1.4,3,3,3h40.4c9.6,0,38.8,6.4,46.9,14.5C-25,85-50.4,121.1-50.4,149.2c0,5.3,0.2,13.4,0.2,13.4l16.9-6.4l10.8-4.1
					L-8.7,88c1.1-5.2,3.8-9.9,7.7-13.5c2-1.9,4.4-3.5,7-4.6c0.6-0.3,1.3-0.6,1.9-0.9C13.7,54,13.4,30.5,8.5,16.6z"/>
				<path class="st9" d="M10.3,23.4c-8.4-2.8-18.1-4.4-26.1-4.4c-16.2,0-55.8,8.5-64.8,8.5h-45v14.8H12.2
					C12.2,35.6,11.6,29.1,10.3,23.4z"/>
				<path class="st11" d="M10.7,25.3c-8.5-2.8-18.4-4.6-26.5-4.6c-16.2,0-55.8,8.5-64.8,8.5h-45v1.8h45c9.1,0,48.6-8.5,64.8-8.5
					c8.2,0,18.2,1.8,26.8,4.7C11,26.6,10.9,26,10.7,25.3z"/>
				<path class="st12" d="M11.4,54.6c-11.2,2-23.6,3-28.2,3c-8.2,0-57.4-8.8-65.4-8.8h-43.4v3.5c10.5-0.3,36.5-1,43.1-1
					c8.2,0,47.8,9.9,65.9,9.9c8,0,18.4-1.7,27.4-3.5C11.1,56.7,11.2,55.7,11.4,54.6z"/>
				<path class="st6" d="M15.8,60.7c-0.6,0-1.1-0.5-1.1-1.1v0c0-0.6,0.5-1.1,1.1-1.1h5.5c0.5-0.7,1.1-1.5,1.5-2.3h-5.1
					c-0.6,0-1.1-0.5-1.1-1.1v0c0-0.6,0.5-1.1,1.1-1.1H24c0.3-0.7,0.7-1.5,1-2.3h-5.5c-0.6,0-1.1-0.5-1.1-1.1v0
					c0-0.6,0.5-1.1,1.1-1.1h6.2c0.2-0.7,0.4-1.5,0.5-2.3h-5.7c-0.6,0-1.1-0.5-1.1-1.1v0c0-0.6,0.5-1.1,1.1-1.1h6
					c0.1-0.8,0.1-1.6,0.1-2.4c0-0.2,0-0.4,0-0.5c0-0.3,0-0.5,0-0.8h-6.1c-0.6,0-1.1-0.5-1.1-1.1v0c0-0.6,0.5-1.1,1.1-1.1h5.9
					c-0.1-0.8-0.2-1.6-0.4-2.3h-6.5c-0.6,0-1.1-0.5-1.1-1.1v0c0-0.6,0.5-1.1,1.1-1.1h5.9c-0.3-0.8-0.5-1.6-0.9-2.3h-6.9
					c-0.6,0-1.1-0.5-1.1-1.1v0c0-0.6,0.5-1.1,1.1-1.1h5.7c-0.1-0.1-0.2-0.3-0.2-0.4c-0.4-0.6-0.8-1.3-1.2-1.9h-6.1
					c-0.6,0-1.1-0.5-1.1-1.1v0c0-0.6,0.5-1.1,1.1-1.1H20C17,21.5,13,18.7,8.5,16.6C13.4,30.5,13.7,54,7.9,69c4-1.9,8.1-4.6,11.5-8.4
					H15.8z"/>
			</g>
			<g>
				<path class="st31" d="M10.6,441.7v55.9c0,4.1-3.3,7.5-7.5,7.5h-26c-4.1,0-7.5-3.3-7.5-7.5v-55.9c0-3.8,3.1-6.8,6.8-6.8H3.8
					C7.6,434.9,10.6,437.9,10.6,441.7z"/>
				<path class="st32" d="M8.6,441.7v55.9c0,4.1-3,7.5-6.7,7.5h-23.4c-3.7,0-6.7-3.3-6.7-7.5v-55.9c0-3.8,2.7-6.8,6.1-6.8H2.4
					C5.8,434.9,8.6,437.9,8.6,441.7z"/>
				<rect x="-22.7" y="429.1" class="st31" width="25.7" height="5.8"/>
				<path class="st33" d="M2.1,413.1H-22c-1.2,0-2.2,1-2.2,2.2V432H4.3v-16.7C4.3,414.1,3.3,413.1,2.1,413.1z"/>
				<path class="st14" d="M-1.8,404.2h-16.7c-1.1,0-1.9,0.9-1.9,1.9v7H0.1v-7C0.1,405.1-0.7,404.2-1.8,404.2z"/>
				<g>
					<path class="st14" d="M0,431.3h-0.9v-15.5c0-0.3,0.2-0.5,0.5-0.5h0c0.3,0,0.5,0.2,0.5,0.5V431.3z"/>
					<path class="st14" d="M1.7,431.3H0.8v-15.5c0-0.3,0.2-0.5,0.5-0.5h0c0.3,0,0.5,0.2,0.5,0.5V431.3z"/>
					<path class="st14" d="M3.5,431.3H2.5v-15.5c0-0.3,0.2-0.5,0.5-0.5h0c0.3,0,0.5,0.2,0.5,0.5V431.3z"/>
				</g>
				<path class="st34" d="M-2.6,384.2h-15.1c-1.5,0-2.7,1.2-2.7,2.7v26.2H0.1v-26.2C0.1,385.4-1.1,384.2-2.6,384.2z"/>
				<path class="st18" d="M10.6,497.4v0.1c0,4.1-3.3,7.5-7.5,7.5h-26c-4.1,0-7.5-3.3-7.5-7.5v-0.1H10.6z"/>
			</g>
		</g>
	</g>
</g>
</svg>
