<svg xmlns="http://www.w3.org/2000/svg" viewBox="0 0 459.72 459.81"><defs><style>.cls-1{fill:#fff;}</style></defs><g id="Layer_2" data-name="Layer 2"><g id="Layer_1-2" data-name="Layer 1"><path class="cls-1" d="M214.68,0h30.54c5.61.7,11.23,1.29,16.82,2.11,44.44,6.5,84.23,23.75,117.83,53.61,61.9,55,87.77,124.21,77.76,206.22a212.63,212.63,0,0,1-53.12,117.52c-58.38,65.59-131.65,91.2-217.94,76.18-57.26-10-103.46-39.92-139.11-85.79A220.34,220.34,0,0,1,3.55,270C2.16,261.77,1.17,253.48,0,245.22V214.68c.3-1.45.68-2.89.88-4.35,1.07-8,1.66-16.06,3.2-24Q18.51,112.83,73.35,61.6c33.08-30.83,71.93-50.37,116.59-58C198.15,2.14,206.43,1.17,214.68,0ZM391,352.78c61.5-79.66,56.43-198.64-24.42-272.62C286.7,7,164.92,9.33,87.31,85.94,9.93,162.3,10.65,278.34,68.89,352.69c21.42-46.89,56.4-79.07,105.39-96.79-22.77-17.77-36-40.43-38.28-68.75-2.3-28.58,7-53.34,27-73.84,34.13-35,90.75-37.47,127.86-5.65,19.38,16.63,30.9,37.77,33,63.14,2.87,34.82-10.5,63.12-38.09,85.14C334.63,273.68,369.5,305.77,391,352.78ZM225.79,274c-4.85.57-14,.9-22.92,2.78q-82,17.4-112.42,95.72c-1.06,2.76-.66,4.3,1.59,6.05,7.53,5.89,14.6,12.43,22.44,17.85,47.13,32.62,99.09,43.16,155.23,32.47,37.47-7.14,70-24.41,98.06-50.17,2.26-2.08,2.62-3.61,1.6-6.45C348.2,313.53,292.33,274.09,225.79,274Zm71.52-93.79c.51-36.65-29.88-67.47-66.95-67.88-36.54-.41-67,29.57-67.76,66.61-.72,36.58,29.55,67.48,66.71,68.1C265.93,247.62,296.79,217.29,297.31,180.17Z"/></g></g></svg>