<?xml version="1.0" encoding="utf-8"?>
<!-- Generator: Adobe Illustrator 25.4.5, SVG Export Plug-In . SVG Version: 6.00 Build 0)  -->
<svg version="1.1" id="Layer_1" xmlns="http://www.w3.org/2000/svg" xmlns:xlink="http://www.w3.org/1999/xlink" x="0px" y="0px"
	 viewBox="0 0 479.4 479.2" style="enable-background:new 0 0 479.4 479.2;" xml:space="preserve">
<style type="text/css">
	.st0{fill:#FFFFFF;}
</style>
<g id="Layer_2_00000154418401964754613640000007291225170546765963_">
	<g id="Layer_1-2">
		<path class="st0" d="M479.4,281.7c-1.3,6.7-2.2,13.5-3.9,20.1c-4.2,16.3-11.9,30.5-28.4,37.1c-7.2,2.9-15.3,3.6-22.9,5.2l-1-1.2
			v4.9c0,11.2,0,22.5,0,33.7c-0.2,38.4-31.3,69.4-69.7,69.6c-14,0-28.1,0.1-42.1,0c-2.7,0-4,0.8-5.2,3.3
			c-7.9,16.2-20.9,24.8-39,24.8c-12,0-24.2,0.8-35.9-1.1c-21.3-3.3-35.6-23.7-33.5-45.5c2-20.8,20.3-37.4,41.5-37.5
			c9.4-0.1,18.7-0.1,28.1,0c18,0.2,30.8,8.6,38.7,24.6c1.3,2.6,2.6,3.6,5.5,3.6c13.4-0.2,26.8,0,40.2-0.1
			c24.8-0.2,43-18.4,43.3-43.1c0-4.2,0-8.4,0-13c-12.1,0-23.7-0.5-35.4,0.1c-15.9,0.9-21.1-5.3-21-20.8c0.5-53.5,0.2-107,0.2-160.4
			c0-11,5.2-16.3,16.3-16.3h38.7c-4.5-69.2-64.7-141.5-154.7-141.1C149.5,28.6,90,100.8,85.6,169.4h24.7c5.2,0,10.3,0,15.4,0
			c9.1,0.1,14.9,5.8,14.9,14.9c0,33.8,0,67.7,0,101.5c0,21.8,0,43.7,0,65.5c0,10-5.6,15.5-15.7,15.5c-17.8,0-35.6,0-53.3,0
			c-9.5,0-15.1-5.6-15.2-15c0-2.9,0-5.9,0-9c-16.4,1-30-3.6-40.4-16.2c-7.3-8.9-11.3-19.4-13.3-30.5c-4-22.2-4.1-44.4,2.3-66.2
			c5.2-17.6,15.4-31,34.2-35.6c5.4-1.3,11-1.4,17.1-2.1c0-1.9,0-4.2,0-6.5c0.7-68.5,30.2-121.2,87.4-158.3
			C167.6,12,194,3.5,222.2,0.9c1.2-0.2,2.4-0.5,3.6-0.9h28.1c2.7,0.4,5.5,0.8,8.2,1.2c44.9,6.1,83,25.7,113.5,59.2
			c27.4,30.1,43.1,65.6,46.8,106.2c0.8,8.6,0.9,17.3,1.3,26.3c2.3,0,4.4-0.1,6.6,0c12.5,0.5,23.4,4.9,32,14.2
			c6.9,7.5,11,16.6,13.4,26.4c1.6,6.6,2.6,13.4,3.9,20.1L479.4,281.7z M84.8,197.7v140.7h27.5V197.6L84.8,197.7z M394.9,338.6V197.8
			h-27.5v140.7L394.9,338.6z M56.2,314.1V222c-10.7-2.3-18.1,0.7-21.7,10.6c-2.9,8.2-4.7,16.7-5.5,25.4c-1.5,14.8-0.8,29.6,4.8,43.7
			C38,312.3,44.2,315.6,56.2,314.1z M423.5,314.2c12.6,1.2,18.5-2.3,23-13.5c0.5-1.3,1-2.6,1.3-4c4.1-15.5,4.8-31.8,2-47.7
			c-1.2-7-3.4-13.8-6.7-20.1c-3.8-7.4-11.6-9.3-19.6-6.4V314.2z M254,422.9c-4.5,0-9-0.1-13.5,0c-8.2,0.2-14.6,6.4-14.6,14
			s6.3,13.9,14.5,14.1c9,0.2,18,0.1,27.1,0c8.2-0.1,14.5-6.4,14.6-14s-6.3-13.8-14.5-14.1C263,422.8,258.5,422.9,254,422.9z"/>
	</g>
</g>
</svg>
